<svg id="圖層_1" data-name="圖層 1" xmlns="http://www.w3.org/2000/svg" xmlns:xlink="http://www.w3.org/1999/xlink" viewBox="0 0 256 256"><defs><style>.cls-1{fill:url(#未命名漸層_200);}.cls-2{fill:url(#未命名漸層_200-2);}.cls-3{fill:url(#未命名漸層_200-3);}.cls-4{fill:url(#未命名漸層_200-4);}.cls-5{fill:url(#未命名漸層_200-5);}.cls-6{fill:url(#未命名漸層_200-6);}.cls-7{fill:url(#未命名漸層_200-7);}.cls-8{fill:url(#未命名漸層_200-8);}.cls-9{fill:url(#未命名漸層_200-9);}.cls-10{fill:url(#未命名漸層_200-10);}.cls-11{fill:url(#未命名漸層_200-11);}.cls-12{fill:url(#未命名漸層_200-12);}.cls-13{fill:url(#未命名漸層_200-13);}.cls-14{fill:url(#未命名漸層_200-14);}.cls-15{fill:url(#未命名漸層_200-15);}.cls-16{fill:url(#未命名漸層_200-16);}.cls-17{fill:url(#未命名漸層_200-17);}.cls-18{fill:url(#未命名漸層_200-18);}.cls-19{fill:url(#未命名漸層_200-19);}.cls-20{fill:url(#未命名漸層_200-20);}.cls-21{fill:url(#未命名漸層_200-21);}.cls-22{fill:url(#未命名漸層_200-22);}.cls-23{fill:url(#未命名漸層_200-23);}.cls-24{fill:url(#未命名漸層_200-24);}.cls-25{fill:url(#未命名漸層_200-25);}.cls-26{fill:url(#未命名漸層_200-26);}.cls-27{fill:url(#未命名漸層_200-27);}.cls-28{fill:url(#未命名漸層_200-28);}.cls-29{fill:url(#未命名漸層_200-29);}.cls-30{fill:url(#未命名漸層_200-30);}.cls-31{fill:url(#未命名漸層_200-31);}.cls-32{fill:url(#未命名漸層_200-32);}.cls-33{fill:url(#未命名漸層_200-33);}.cls-34{fill:url(#未命名漸層_200-34);}.cls-35{fill:url(#未命名漸層_200-35);}.cls-36{fill:url(#未命名漸層_200-36);}</style><linearGradient id="未命名漸層_200" x1="-759.304" y1="347.365" x2="-795.016" y2="340.42" gradientTransform="matrix(0.883, 0.468, 0.883, -0.468, 530.381, 535.73)" gradientUnits="userSpaceOnUse"><stop offset="0" stop-color="#d39cff"/><stop offset="0.549" stop-color="#b4c5fe" stop-opacity="0.852"/><stop offset="0.857" stop-color="#93f1fe" stop-opacity="0.695"/><stop offset="1" stop-color="#f0deff" stop-opacity="0.32"/></linearGradient><linearGradient id="未命名漸層_200-2" x1="-567.668" y1="939.581" x2="-604.613" y2="937.5" gradientTransform="matrix(0.883, -0.468, 0, -1, 676.155, 722.334)" xlink:href="#未命名漸層_200"/><linearGradient id="未命名漸層_200-3" x1="-578.855" y1="293.359" x2="-615.802" y2="291.291" gradientTransform="matrix(0.883, 0.468, 0, -1, 664.882, 629.268)" xlink:href="#未命名漸層_200"/><linearGradient id="未命名漸層_200-4" x1="-762.036" y1="327.719" x2="-797.748" y2="320.774" gradientTransform="matrix(0.883, 0.468, 0.883, -0.468, 507.835, 544.766)" xlink:href="#未命名漸層_200"/><linearGradient id="未命名漸層_200-5" x1="-590.082" y1="951.791" x2="-626.948" y2="949.101" gradientTransform="matrix(0.883, -0.468, 0, -1, 653.609, 731.369)" xlink:href="#未命名漸層_200"/><linearGradient id="未命名漸層_200-6" x1="-601.27" y1="284.776" x2="-638.137" y2="282.091" gradientTransform="matrix(0.883, 0.468, 0, -1, 642.336, 638.303)" xlink:href="#未命名漸層_200"/><linearGradient id="未命名漸層_200-7" x1="-735.038" y1="289.532" x2="-770.75" y2="282.587" gradientTransform="matrix(0.883, 0.468, 0.883, -0.468, 496.562, 579.591)" xlink:href="#未命名漸層_200"/><linearGradient id="未命名漸層_200-8" x1="-660.026" y1="235.166" x2="-689.128" y2="229.507" gradientTransform="matrix(0.866, 0.5, 0.866, -0.5, 539.402, 623.956)" xlink:href="#未命名漸層_200"/><linearGradient id="未命名漸層_200-9" x1="-687.108" y1="191.588" x2="-715.675" y2="186.033" gradientTransform="matrix(0.851, 0.525, 0.851, -0.525, 487.175, 611.219)" xlink:href="#未命名漸層_200"/><linearGradient id="未命名漸層_200-10" x1="-679.043" y1="225.338" x2="-708.145" y2="219.679" gradientTransform="matrix(0.866, 0.5, 0.866, -0.5, 510.914, 618.717)" xlink:href="#未命名漸層_200"/><linearGradient id="未命名漸層_200-11" x1="-631.051" y1="174.456" x2="-644.152" y2="171.908" gradientTransform="matrix(0.853, 0.522, 0.853, -0.522, 531.123, 666.997)" xlink:href="#未命名漸層_200"/><linearGradient id="未命名漸層_200-12" x1="-667.763" y1="179.512" x2="-680.864" y2="176.964" gradientTransform="matrix(0.853, 0.522, 0.853, -0.522, 500.342, 642.111)" xlink:href="#未命名漸層_200"/><linearGradient id="未命名漸層_200-13" x1="-670.456" y1="226.867" x2="-690.303" y2="223.007" gradientTransform="matrix(0.876, 0.483, 0.876, -0.483, 515.418, 643.665)" xlink:href="#未命名漸層_200"/><linearGradient id="未命名漸層_200-14" x1="-672.37" y1="277.304" x2="-692.216" y2="273.444" gradientTransform="matrix(0.876, 0.483, 0.876, -0.483, 563.881, 614.85)" xlink:href="#未命名漸層_200"/><linearGradient id="未命名漸層_200-15" x1="-601.492" y1="942.301" x2="-637.873" y2="937.325" gradientTransform="matrix(0.883, -0.468, 0, -1, 642.336, 766.195)" xlink:href="#未命名漸層_200"/><linearGradient id="未命名漸層_200-16" x1="-582.483" y1="919.064" x2="-612.198" y2="915.256" gradientTransform="matrix(0.866, -0.5, 0, -1, 682.296, 809.689)" xlink:href="#未命名漸層_200"/><linearGradient id="未命名漸層_200-17" x1="-653.258" y1="985.757" x2="-682.471" y2="982.195" gradientTransform="matrix(0.851, -0.525, 0, -1, 627.559, 797.81)" xlink:href="#未命名漸層_200"/><linearGradient id="未命名漸層_200-18" x1="-611.767" y1="945.594" x2="-640.52" y2="939.138" gradientTransform="matrix(0.866, -0.5, 0, -1, 653.808, 804.45)" xlink:href="#未命名漸層_200"/><linearGradient id="未命名漸層_200-19" x1="-618.448" y1="925.495" x2="-631.444" y2="922.702" gradientTransform="matrix(0.853, -0.522, 0, -1, 671.812, 847.782)" xlink:href="#未命名漸層_200"/><linearGradient id="未命名漸層_200-20" x1="-650.104" y1="963.857" x2="-663.1" y2="961.065" gradientTransform="matrix(0.853, -0.522, 0, -1, 641.031, 822.895)" xlink:href="#未命名漸層_200"/><linearGradient id="未命名漸層_200-21" x1="-603.889" y1="907.751" x2="-623.429" y2="903.206" gradientTransform="matrix(0.876, -0.483, 0, -1, 659.926, 825.538)" xlink:href="#未命名漸層_200"/><linearGradient id="未命名漸層_200-22" x1="-555.366" y1="909.599" x2="-574.906" y2="905.054" gradientTransform="matrix(0.876, -0.483, 0, -1, 708.389, 796.722)" xlink:href="#未命名漸層_200"/><linearGradient id="未命名漸層_200-23" x1="-612.69" y1="265.188" x2="-649.049" y2="260.13" gradientTransform="matrix(0.883, 0.468, 0, -1, 631.064, 673.129)" xlink:href="#未命名漸層_200"/><linearGradient id="未命名漸層_200-24" x1="-591.609" y1="220.58" x2="-621.307" y2="216.709" gradientTransform="matrix(0.866, 0.5, 0, -1, 673.291, 711.532)" xlink:href="#未命名漸層_200"/><linearGradient id="未命名漸層_200-25" x1="-662.215" y1="177.726" x2="-691.414" y2="174.105" gradientTransform="matrix(0.851, 0.525, 0, -1, 618.875, 694.752)" xlink:href="#未命名漸層_200"/><linearGradient id="未命名漸層_200-26" x1="-620.961" y1="218.604" x2="-649.55" y2="211.81" gradientTransform="matrix(0.866, 0.5, 0, -1, 644.802, 706.293)" xlink:href="#未命名漸層_200"/><linearGradient id="未命名漸層_200-27" x1="-622.584" y1="171.597" x2="-635.511" y2="168.657" gradientTransform="matrix(0.853, 0.522, 0, -1, 667.821, 748.178)" xlink:href="#未命名漸層_200"/><linearGradient id="未命名漸層_200-28" x1="-654.24" y1="176.881" x2="-667.167" y2="173.941" gradientTransform="matrix(0.853, 0.522, 0, -1, 637.04, 723.291)" xlink:href="#未命名漸層_200"/><linearGradient id="未命名漸層_200-29" x1="-610.162" y1="220.43" x2="-629.582" y2="215.649" gradientTransform="matrix(0.876, 0.483, 0, -1, 653.716, 732.367)" xlink:href="#未命名漸層_200"/><linearGradient id="未命名漸層_200-30" x1="-561.638" y1="269.119" x2="-581.059" y2="264.338" gradientTransform="matrix(0.876, 0.483, 0, -1, 702.179, 703.551)" xlink:href="#未命名漸層_200"/><linearGradient id="未命名漸層_200-31" x1="-740.586" y1="317.457" x2="-776.298" y2="310.513" gradientTransform="matrix(0.883, 0.468, 0.883, -0.468, 519.108, 561.708)" xlink:href="#未命名漸層_200"/><linearGradient id="未命名漸層_200-32" x1="-722.702" y1="321.952" x2="-758.414" y2="315.007" gradientTransform="matrix(0.883, 0.468, 0.883, -0.468, 541.654, 568.861)" xlink:href="#未命名漸層_200"/><linearGradient id="未命名漸層_200-33" x1="-578.857" y1="922.043" x2="-615.802" y2="919.963" gradientTransform="matrix(0.883, -0.468, 0, -1, 664.882, 748.311)" xlink:href="#未命名漸層_200"/><linearGradient id="未命名漸層_200-34" x1="-556.515" y1="914.936" x2="-593.381" y2="912.246" gradientTransform="matrix(0.883, -0.468, 0, -1, 687.428, 755.465)" xlink:href="#未命名漸層_200"/><linearGradient id="未命名漸層_200-35" x1="-590.044" y1="265.338" x2="-626.991" y2="263.269" gradientTransform="matrix(0.883, 0.468, 0, -1, 653.609, 655.246)" xlink:href="#未命名漸層_200"/><linearGradient id="未命名漸層_200-36" x1="-567.703" y1="279.372" x2="-604.57" y2="276.687" gradientTransform="matrix(0.883, 0.468, 0, -1, 676.155, 662.399)" xlink:href="#未命名漸層_200"/></defs><polygon class="cls-1" points="149.243 0 170.231 11.13 149.243 22.259 128.254 11.13 149.243 0"/><polygon class="cls-2" points="149.243 22.083 170.231 10.954 170.231 93.002 149.243 104.131 149.243 22.083"/><polygon class="cls-3" points="128.085 10.954 149.073 22.083 149.073 104.589 128.085 93.459 128.085 10.954"/><polygon class="cls-4" points="106.927 16.96 127.915 28.089 106.927 39.219 85.938 28.089 106.927 16.96"/><polygon class="cls-5" points="106.927 39.041 127.915 27.912 127.915 91.217 106.927 102.346 106.927 39.041"/><polygon class="cls-6" points="85.768 27.911 106.757 39.041 106.757 102.463 85.768 91.333 85.768 27.911"/><polygon class="cls-7" points="85.768 82.322 106.757 93.452 85.768 104.581 64.78 93.452 85.768 82.322"/><polygon class="cls-8" points="157.723 161.33 174.489 171.01 157.723 180.69 140.957 171.01 157.723 161.33"/><polygon class="cls-9" points="52.332 133.982 68.5 143.968 52.332 153.954 36.163 143.968 52.332 133.982"/><polygon class="cls-10" points="104.254 151.497 121.02 161.177 104.254 170.857 87.488 161.177 104.254 151.497"/><polygon class="cls-11" points="135.712 239.077 143.144 243.63 135.712 248.183 128.281 243.63 135.712 239.077"/><polygon class="cls-12" points="77.94 192.368 85.371 196.922 77.94 201.475 70.509 196.922 77.94 192.368"/><polygon class="cls-13" points="117.445 200.664 129.008 207.037 117.445 213.409 105.882 207.037 117.445 200.664"/><polygon class="cls-14" points="208.404 146.581 219.967 152.954 208.404 159.326 196.842 152.954 208.404 146.581"/><polygon class="cls-15" points="85.768 104.406 106.757 93.276 106.757 127.055 85.768 138.184 85.768 104.406"/><polygon class="cls-16" points="157.723 180.536 174.489 170.856 174.489 200.235 157.723 209.915 157.723 180.536"/><polygon class="cls-17" points="52.332 153.794 68.5 143.808 68.5 174.116 52.332 184.102 52.332 153.794"/><polygon class="cls-18" points="104.254 170.703 121.02 161.023 121.02 177.792 104.254 187.472 104.254 170.703"/><polygon class="cls-19" points="135.712 248.112 143.144 243.559 143.144 251.447 135.712 256 135.712 248.112"/><polygon class="cls-20" points="77.94 201.402 85.371 196.848 85.371 204.736 77.94 209.29 77.94 201.402"/><polygon class="cls-21" points="117.445 213.309 129.008 206.936 129.008 217.976 117.445 224.348 117.445 213.309"/><polygon class="cls-22" points="208.404 159.224 219.967 152.852 219.967 163.891 208.404 170.264 208.404 159.224"/><polygon class="cls-23" points="64.612 93.276 85.601 104.405 85.601 137.61 64.612 126.481 64.612 93.276"/><polygon class="cls-24" points="140.821 170.857 157.587 180.537 157.587 209.417 140.821 199.737 140.821 170.857"/><polygon class="cls-25" points="36.033 143.809 52.201 153.795 52.201 183.588 36.033 173.602 36.033 143.809"/><polygon class="cls-26" points="87.351 161.024 104.117 170.704 104.117 186.546 87.351 176.866 87.351 161.024"/><polygon class="cls-27" points="128.222 243.559 135.653 248.112 135.653 255.564 128.222 251.011 128.222 243.559"/><polygon class="cls-28" points="70.449 196.848 77.88 201.402 77.88 208.854 70.449 204.3 70.449 196.848"/><polygon class="cls-29" points="105.789 206.937 117.352 213.309 117.352 223.738 105.789 217.366 105.789 206.937"/><polygon class="cls-30" points="196.749 152.852 208.312 159.225 208.312 169.654 196.749 163.281 196.749 152.852"/><polygon class="cls-31" points="128.085 48.758 149.073 59.887 128.085 71.017 107.096 59.887 128.085 48.758"/><polygon class="cls-32" points="170.401 62.183 191.39 73.313 170.401 84.442 149.413 73.313 170.401 62.183"/><polygon class="cls-33" points="128.085 70.84 149.073 59.71 149.073 141.758 128.085 152.887 128.085 70.84"/><polygon class="cls-34" points="170.401 84.267 191.39 73.137 191.39 136.442 170.401 147.572 170.401 84.267"/><polygon class="cls-35" points="106.927 59.711 127.915 70.841 127.915 153.347 106.927 142.217 106.927 59.711"/><polygon class="cls-36" points="149.243 73.137 170.231 84.266 170.231 147.688 149.243 136.559 149.243 73.137"/></svg>