<svg id="圖層_1" data-name="圖層 1" xmlns="http://www.w3.org/2000/svg" xmlns:xlink="http://www.w3.org/1999/xlink" viewBox="0 0 128 128"><defs><style>.cls-1,.cls-11,.cls-2,.cls-3,.cls-7,.cls-9{fill:none;stroke-miterlimit:10;}.cls-1,.cls-2,.cls-3{stroke-width:2px;}.cls-1{stroke:url(#Neon_Pastel_Gradient_4);}.cls-2{stroke:url(#Neon_Pastel_Gradient_4-2);}.cls-3{stroke:url(#Neon_Pastel_Gradient_4-3);}.cls-4{opacity:0.1;}.cls-5{fill:#6fbed2;}.cls-6{opacity:0.84;}.cls-7{stroke:url(#未命名漸層_39);}.cls-8{fill:url(#未命名漸層_39-2);}.cls-9{stroke:url(#未命名漸層_39-3);}.cls-10{fill:url(#未命名漸層_39-4);}.cls-11{opacity:0.07;stroke:url(#Neon_Pastel_Gradient_4-4);}</style><linearGradient id="Neon_Pastel_Gradient_4" x1="-347.051" y1="628.401" x2="-327.524" y2="628.401" gradientTransform="translate(658.856 386.83) rotate(90)" gradientUnits="userSpaceOnUse"><stop offset="0.119" stop-color="#96d1cb"/><stop offset="1" stop-color="#4fa2da"/></linearGradient><linearGradient id="Neon_Pastel_Gradient_4-2" x1="-338.123" y1="658.54" x2="-301.293" y2="658.54" gradientTransform="translate(416.246 -550.304) rotate(4.523)" xlink:href="#Neon_Pastel_Gradient_4"/><linearGradient id="Neon_Pastel_Gradient_4-3" x1="-297.685" y1="632.559" x2="-260.855" y2="632.559" gradientTransform="translate(416.246 -550.304) rotate(4.523)" xlink:href="#Neon_Pastel_Gradient_4"/><linearGradient id="未命名漸層_39" x1="35.968" y1="46.495" x2="111.352" y2="52.458" gradientUnits="userSpaceOnUse"><stop offset="0" stop-color="#e968a0"/><stop offset="0.973" stop-color="#5b60a9"/></linearGradient><linearGradient id="未命名漸層_39-2" x1="37.056" y1="32.748" x2="112.439" y2="38.711" xlink:href="#未命名漸層_39"/><linearGradient id="未命名漸層_39-3" x1="5.92" y1="103.325" x2="73.023" y2="108.633" xlink:href="#未命名漸層_39"/><linearGradient id="未命名漸層_39-4" x1="6.493" y1="96.075" x2="73.597" y2="101.383" xlink:href="#未命名漸層_39"/><linearGradient id="Neon_Pastel_Gradient_4-4" x1="-349.053" y1="640.17" x2="-247.632" y2="640.17" gradientTransform="translate(416.246 -550.304) rotate(4.523)" xlink:href="#Neon_Pastel_Gradient_4"/></defs><ellipse class="cls-1" cx="30.455" cy="49.543" rx="9.304" ry="8.764" transform="translate(-21.335 75.996) rotate(-85.477)"/><path class="cls-2" d="M59.705,76.546a3.39,3.39,0,0,1-.571.039l-13.089-.214,7.684,14.454a4.511,4.511,0,0,1,.274.618,6.01,6.01,0,0,1-3.19,7.17,6.014,6.014,0,0,1-7.73-1.365,4.952,4.952,0,0,1-.358-.574l-13.1-24.648c-1.428-2.686-.121-6.174,2.916-7.79a6.973,6.973,0,0,1,2.1-.719,3.484,3.484,0,0,1,1.064-.15l23.643.388a3.166,3.166,0,0,1,.57.058c2.3.423,4.043,3.154,3.99,6.433S62.019,76.2,59.705,76.546Z"/><path class="cls-3" d="M73.862,62.691a3.483,3.483,0,0,1,.571-.039l13.088.214L79.837,48.412a4.624,4.624,0,0,1-.274-.617,6.372,6.372,0,0,1,10.92-5.8,4.807,4.807,0,0,1,.358.573l13.105,24.648c1.427,2.687.12,6.175-2.917,7.79a6.967,6.967,0,0,1-2.1.72,3.508,3.508,0,0,1-1.063.15l-23.644-.389a3.175,3.175,0,0,1-.57-.058c-2.3-.422-4.043-3.154-3.99-6.433S71.547,63.038,73.862,62.691Z"/><g class="cls-4"><ellipse class="cls-5" cx="37.012" cy="51.455" rx="9.304" ry="8.764" transform="translate(-17.201 84.293) rotate(-85.477)"/><path class="cls-5" d="M66.261,78.458a3.376,3.376,0,0,1-.571.039L52.6,78.283l7.684,14.454a4.636,4.636,0,0,1,.274.618,6.372,6.372,0,0,1-10.92,5.8,4.855,4.855,0,0,1-.358-.573l-13.1-24.648c-1.428-2.687-.121-6.174,2.916-7.79a7,7,0,0,1,2.1-.72,3.483,3.483,0,0,1,1.064-.149l23.643.388a3.166,3.166,0,0,1,.57.058c2.3.423,4.043,3.154,3.99,6.433S68.576,78.111,66.261,78.458Z"/><path class="cls-5" d="M80.418,64.6a3.5,3.5,0,0,1,.572-.039l13.088.214L86.394,50.324a4.458,4.458,0,0,1-.274-.618,6.372,6.372,0,0,1,10.92-5.8,4.939,4.939,0,0,1,.358.573l13.1,24.648c1.428,2.687.121,6.175-2.916,7.79a6.976,6.976,0,0,1-2.1.72,3.483,3.483,0,0,1-1.064.149L80.78,77.394a3.166,3.166,0,0,1-.57-.058c-2.3-.423-4.043-3.154-3.99-6.433S78.1,64.95,80.418,64.6Z"/><path class="cls-5" d="M45.327,68.532a4.736,4.736,0,0,0,.331.588l-.043.021Z"/><path class="cls-5" d="M56.589,63.2l.288.608-.043.021A4.753,4.753,0,0,0,56.589,63.2Z"/></g><g class="cls-6"><path class="cls-7" d="M39.878,33.077C64.242,12.075,92.7,5.5,105.6,18.683c13.851,14.168,4.485,45.788-20.92,70.624"/><path class="cls-8" d="M42.513,35.823a3.76,3.76,0,1,1,.373-5.3A3.759,3.759,0,0,1,42.513,35.823Z"/></g><g class="cls-6"><path class="cls-9" d="M70.566,101.045c-22.105,15.463-45.595,19.213-56.969,7.58-3.944-4.035-6.006-9.485-6.35-15.79"/><path class="cls-10" d="M68.214,98.068a3.76,3.76,0,1,1-.88,5.244A3.76,3.76,0,0,1,68.214,98.068Z"/></g><path class="cls-11" d="M82.211,99.641c-22.919,17.2-47.99,21.818-59.861,9.676C8.5,95.149,17.865,63.529,43.27,38.693S100.5,5.207,114.35,19.375,118.835,65.163,93.43,90"/></svg>