<svg id="_2021" data-name="2021" xmlns="http://www.w3.org/2000/svg" viewBox="0 0 288 72"><path d="M89.987,30.568V27.853h5.4V22.421h2.7v5.432h5.4v2.715H117v8.148h2.7v2.717H117v5.431h2.7V49.58h-5.4V52.3h-2.7V49.58h-10.8V38.716h2.7V33.284h-2.7V30.568h-2.7V52.3h-2.7V41.433h-2.7V36h2.7V30.568Zm0,16.3V41.433h2.7v5.431ZM119.7,25.137v2.716h-16.2V19.7h2.7v5.433ZM106.192,46.864V41.433h-2.7v5.431Zm2.7-8.148V33.284h-2.7v5.432Zm5.4,8.148V41.433h-5.4v5.431Zm0-8.148V33.284h-2.7v5.432Z"/><path d="M125.99,38.716V33.284h2.7v5.432Zm5.4-5.432h-2.7V22.421h2.7v5.432h8.1v2.715h-2.7V52.3h-2.7V30.568h-2.7Zm10.8,5.432h-2.7V33.284h2.7Zm8.1,10.864V30.568h-5.4v2.716h-2.7V27.853h2.7V19.7h2.7v8.149h8.1v2.715H153V52.3h-8.1V49.58Z"/><path d="M194.4,41.433v2.715h-29.71V41.433h13.5V38.716h-10.8V36h10.8V33.284h-10.8V22.421H191.7V33.284H180.9V36h10.8v2.716H180.9v2.717ZM167.394,49.58V52.3h-2.7V49.58Zm2.7-2.716V49.58h-2.7V46.864Zm2.7-21.727h-2.7v5.431h8.1V25.137h-2.7v2.716h-2.7Zm0,24.443V46.864h2.7V49.58Zm5.4,0V52.3h-2.7V49.58Zm8.1-24.443v2.716h-2.7V25.137h-2.7v5.431H189V25.137Zm-2.7,21.727V49.58h-2.7V46.864Zm2.7,2.716V52.3h-2.7V49.58Zm5.4-2.716V49.58H189V46.864Zm2.7,2.716V52.3h-2.7V49.58Z"/><path d="M197.994,33.284V25.137h13.5V22.421h2.7v2.716h13.5v8.147H225V27.853h-2.7v2.715h-2.7V27.853H208.8v2.715h-2.7V27.853h-5.4v5.431Zm0,8.149V38.716h8.1v2.717h16.2V52.3H203.4V41.433Zm5.4-8.149V36h-2.7V33.284Zm2.7,0h-2.7V30.568h2.7Zm0,5.432V36h5.4v2.716ZM219.6,49.58V44.148H206.1V49.58Zm-10.8-16.3V30.568h2.7v2.716Zm8.1,0V36h-5.4V33.284Zm2.7,0h-2.7V30.568h2.7Zm2.7,5.432h-5.4V36h5.4Zm0,2.717V38.716h5.4v2.717Z"/><path d="M234,30.568V27.853h5.4V22.421h2.7v5.432h2.7v2.715h-2.7V52.3h-2.7V41.433h-2.7V36h2.7V30.568Zm0,16.3V41.433h2.7v5.431Zm10.8-8.148V33.284h2.7v5.432Zm0,8.148h2.7V49.58h8.1V52.3H244.8Zm5.4-13.58h-2.7V27.853h2.7Zm0,13.58h-2.7V41.433h2.7Zm8.1-21.727h-8.1V22.421h10.8v8.147h-2.7Zm-5.4,16.3h-2.7V36h2.7Zm5.4,5.431V49.58h-2.7V46.864Zm0-5.431h2.7v5.431h-2.7Zm5.4-2.717h-2.7V30.568h2.7Zm0,13.58h-2.7V46.864h2.7Z"/><polygon points="13.935 25.548 11.613 25.548 11.613 23.226 9.29 23.226 9.29 23.226 9.29 23.226 9.29 20.903 4.645 20.903 4.645 23.226 2.323 23.226 2.323 25.548 0 25.548 0 30.194 2.323 30.194 2.323 32.516 4.645 32.516 4.645 34.839 4.645 34.839 9.29 34.839 9.29 32.516 11.613 32.516 11.613 30.194 13.935 30.194 13.935 25.548"/><polygon points="30.194 41.806 39.484 41.806 39.484 39.484 41.806 39.484 41.806 34.839 39.484 34.839 39.484 32.516 16.258 32.516 16.258 34.839 16.258 34.839 13.935 34.839 13.935 44.129 16.258 44.129 16.258 44.129 16.258 46.452 18.581 46.452 18.581 48.774 20.903 48.774 20.903 51.097 23.226 51.097 23.226 51.097 23.226 53.419 25.548 53.419 25.548 55.742 27.871 55.742 27.871 58.065 30.194 58.065 30.194 58.065 30.194 58.065 30.194 60.387 32.516 60.387 32.516 62.71 37.161 62.71 37.161 60.387 39.484 60.387 39.484 58.065 39.484 58.065 39.484 58.065 41.806 58.065 41.806 53.419 39.484 53.419 39.484 51.097 37.161 51.097 37.161 48.774 34.839 48.774 34.839 46.452 32.516 46.452 32.516 44.129 30.194 44.129 30.194 44.129 30.194 41.806 30.194 41.806"/><polygon points="69.677 30.194 69.677 30.194 69.677 27.871 67.355 27.871 67.355 25.548 65.032 25.548 65.032 25.548 65.032 23.226 62.71 23.226 62.71 23.226 62.71 20.903 60.387 20.903 60.387 20.903 60.387 18.581 58.065 18.581 58.065 18.581 58.065 16.258 55.742 16.258 55.742 16.258 55.742 16.258 55.742 13.935 53.419 13.935 53.419 11.613 51.097 11.613 51.097 9.29 46.452 9.29 46.452 11.613 44.129 11.613 44.129 20.903 46.452 20.903 46.452 23.226 48.774 23.226 48.774 25.548 51.097 25.548 51.097 25.548 51.097 27.871 51.097 27.871 53.419 27.871 53.419 30.194 55.742 30.194 55.742 30.194 55.742 32.516 55.742 32.516 46.452 32.516 46.452 34.839 44.129 34.839 44.129 39.484 46.452 39.484 46.452 41.806 69.677 41.806 69.677 39.484 72 39.484 72 30.194 69.677 30.194"/></svg>