<svg id="_2022" data-name="2022" xmlns="http://www.w3.org/2000/svg" xmlns:xlink="http://www.w3.org/1999/xlink" viewBox="0 0 288 72"><defs><style>.cls-1{fill:url(#未命名漸層_7);}.cls-2{opacity:0.84;}.cls-3,.cls-5{fill:none;stroke-linecap:round;stroke-miterlimit:10;}.cls-3{stroke:url(#未命名漸層_4);}.cls-4{fill:url(#未命名漸層_4-2);}.cls-5{stroke:url(#未命名漸層_4-3);}.cls-6{fill:url(#未命名漸層_4-4);}.cls-7{fill:url(#未命名漸層_7-6);}.cls-8{fill:url(#未命名漸層_7-7);}.cls-9{fill:url(#未命名漸層_7-8);}</style><linearGradient id="未命名漸層_7" x1="90" y1="36" x2="267.645" y2="36" gradientUnits="userSpaceOnUse"><stop offset="0.12" stop-color="#92cac5"/><stop offset="1" stop-color="#4f9acd"/></linearGradient><linearGradient id="未命名漸層_4" x1="19.851" y1="49.718" x2="71.733" y2="45.609" gradientTransform="matrix(1, 0, 0, -1, 0, 74)" gradientUnits="userSpaceOnUse"><stop offset="0" stop-color="#da6597"/><stop offset="0.97" stop-color="#575c9f"/></linearGradient><linearGradient id="未命名漸層_4-2" x1="20.868" y1="59.191" x2="72.328" y2="55.122" xlink:href="#未命名漸層_4"/><linearGradient id="未命名漸層_4-3" x1="-0.558" y1="10.964" x2="45.705" y2="7.302" xlink:href="#未命名漸層_4"/><linearGradient id="未命名漸層_4-4" x1="0.007" y1="15.759" x2="45.815" y2="12.134" xlink:href="#未命名漸層_4"/><linearGradient id="未命名漸層_7-6" x1="9.712" y1="47.604" x2="21.661" y2="47.113" gradientTransform="matrix(0.038, 0.999, 0.999, -0.038, -32.239, 12.783)" xlink:href="#未命名漸層_7"/><linearGradient id="未命名漸層_7-7" x1="14.966" y1="26.747" x2="38.72" y2="25.764" gradientTransform="matrix(1, 0, 0, -1, 0, 74)" xlink:href="#未命名漸層_7"/><linearGradient id="未命名漸層_7-8" x1="43.244" y1="43.324" x2="66.996" y2="42.348" gradientTransform="matrix(1, 0, 0, -1, 0, 74)" xlink:href="#未命名漸層_7"/></defs><path class="cls-1" d="M123.539,39.639h-2.391q-.1,2.355-.421,5.73h2.531v2.285H120.48a8.579,8.579,0,0,1-1.054,3.481,2.962,2.962,0,0,1-2.285,1.2,26.378,26.378,0,0,1-3.938,0,4.944,4.944,0,0,0-.6-2.144q1.582.1,3.516.1a1.572,1.572,0,0,0,1.2-.492,5.45,5.45,0,0,0,.668-2.145H106.242l-.316,1.617-2.5-.175q.772-3.937,1.547-9.457h-2.532v-.387l-1.195,1.863A41.815,41.815,0,0,0,98.4,36.58V52.33h-2.5V35.666a39.479,39.479,0,0,1-4.535,10.09A19.251,19.251,0,0,0,90,43.436a36.7,36.7,0,0,0,4.746-10.407q.563-1.827.914-3.445H90.773V27.123h5.133V19.494h2.5v7.629H102.8v1.863a26.664,26.664,0,0,0,4.535-9.527l2.531.6a41.459,41.459,0,0,1-1.336,3.972h14.414V26.42h-15.5a27,27,0,0,1-3.376,5.273,12.768,12.768,0,0,0-2.109-1.687l.387-.422H98.4v3.691q2,2.321,4.043,5.028v-.985h2.848q.738-5.659.914-7.769h15.328c0,.023-.012.434-.035,1.23q-.141,4.36-.246,6.539h2.285Zm-16.945,5.73h11.742q.246-2.637.387-5.73H107.367Q107.157,41.361,106.594,45.369ZM119.039,31.8H108.387q-.072.633-.246,1.969-.282,2.391-.422,3.55h11.144Q119,34.225,119.039,31.8Zm-3.164,11.637-1.582,1.441a19.316,19.316,0,0,0-4.43-3.481,2.269,2.269,0,0,1-.246-.14l1.512-1.231A24.89,24.89,0,0,1,115.875,43.436Zm-5.8-9.844,1.477-1.266a20.932,20.932,0,0,1,4.816,3.27L114.785,37a20.66,20.66,0,0,0-4.535-3.3A1.566,1.566,0,0,0,110.074,33.592Z"/><path class="cls-1" d="M142.77,29.443h-6.4V52.365h-2.637V29.443h-1.722a33.984,33.984,0,0,1-3.8,6.856,18.85,18.85,0,0,0-2.391-1.617q4.079-5.028,6.4-14.625c.047-.188.093-.375.14-.563l2.742.563a58.236,58.236,0,0,1-2.039,6.75h9.7Zm16.453-2.636v2.636h-5.45V48.814q0,2.181-1.054,2.743a2.66,2.66,0,0,1-.457.211q-1.371.563-5.977.562a11.276,11.276,0,0,0-.879-2.812q3.481.105,4.922.035c.469-.164.726-.41.774-.739V29.443h-5.274a34.289,34.289,0,0,1-3.762,6.821,9.511,9.511,0,0,0-2.32-1.618q4.113-5.1,6.293-14.8c.023-.117.047-.234.07-.352l2.672.527a53.238,53.238,0,0,1-1.969,6.786Z"/><path class="cls-1" d="M194.7,41.572v2.356H162.879V41.572H177.4V38.3H165.832v-2.18H177.4V33.17H166.465V20.865h24.5V33.17H180.035v2.953h11.637V38.3H180.035v3.269ZM165.41,52.541l-2.5-1.2a14.856,14.856,0,0,0,3.867-5.66c.047-.118.094-.223.141-.317l2.566.633A18.432,18.432,0,0,1,165.41,52.541ZM169,30.92h8.4V23.115H169Zm2.039-6.293,1.758-.6a16.208,16.208,0,0,1,2.355,5.239l-1.9.738A18.094,18.094,0,0,0,171.035,24.627Zm2,21.656,2.5-.176a23.654,23.654,0,0,1,.774,5.7l-2.6.386A30.577,30.577,0,0,0,173.039,46.283ZM188.3,30.92V23.115h-8.262V30.92Zm-7.875,15.434,2.5-.528a26.5,26.5,0,0,1,2.039,5.7l-2.637.668A32.043,32.043,0,0,0,180.422,46.354Zm2.953-15.961-1.723-.7a30.206,30.206,0,0,0,2.778-5.695l2.074.774Q184.183,29.163,183.375,30.393Zm4.324,15.82,2.426-.844a30.863,30.863,0,0,1,4.57,5.766c.071.117.129.211.176.281l-2.6,1.02a31.686,31.686,0,0,0-4.36-5.977A1.728,1.728,0,0,1,187.7,46.213Z"/><path class="cls-1" d="M222.645,28.389l1.793,1.125a24.536,24.536,0,0,1-7.067,6.89,47.4,47.4,0,0,0,13.957,3.8,8.86,8.86,0,0,0-1.687,2.531,45.252,45.252,0,0,1-4.852-.949V52.3h-2.707v-1.16H207.527v1.2h-2.566V42.135q-2.919.879-5.449,1.441a7.857,7.857,0,0,0-1.336-2.355,52.21,52.21,0,0,0,14.2-4.711,23.964,23.964,0,0,1-4.852-4.219,31.507,31.507,0,0,1-5.625,3.551,7.321,7.321,0,0,0-1.793-1.9,24.023,24.023,0,0,0,9.457-7.031q.423-.561.774-1.09l2.883.528q-.986,1.371-1.653,2.144h10.618Zm-20.391-3.164v4.254h-2.566v-6.75h13.64v-3.2h2.707v3.2h13.781v6.75h-2.671V25.225ZM207.281,41.4h16.031a41.705,41.705,0,0,1-8.472-3.41A51.908,51.908,0,0,1,207.281,41.4Zm.246,7.418h14.555v-5.2H207.527ZM209.5,30.6l-.105.14a21.58,21.58,0,0,0,5.484,4.36,24.96,24.96,0,0,0,5.484-4.5Z"/><path class="cls-1" d="M247.711,38.725l-1.547,2.39a56.452,56.452,0,0,0-3.34-4.781v16h-2.6V35.244a40.108,40.108,0,0,1-4.782,10.512A10.266,10.266,0,0,0,234,43.436a34.166,34.166,0,0,0,4.992-10.442q.528-1.758.914-3.41h-5.238V27.123h5.555V19.494h2.6v7.629H247.5v2.461h-4.676v3.621q2.215,2.286,4.746,5.344A.72.72,0,0,1,247.711,38.725Zm3.164-14.766,2.637.527a31.447,31.447,0,0,1-4.992,11.5c-.094.141-.176.259-.247.352a12.859,12.859,0,0,0-2.32-1.512Q249.151,30.991,250.875,23.959Zm8.086,17.121,2.355-1.019a49.118,49.118,0,0,1,5.52,9.949q.246.633.422,1.16l-2.6,1.2a23.071,23.071,0,0,0-1.09-2.918q-5.379.423-16.7,1.231l-.387-2.707,3.762-.176a93.455,93.455,0,0,0,4.113-14.836.267.267,0,0,0,.036-.105l3.058.738q-2.391,8.4-4.535,14.027,1.722-.105,5.484-.351,2.707-.212,4.043-.282A66.77,66.77,0,0,0,258.961,41.08Zm-6.223-20.215H261.7a33.061,33.061,0,0,0,4.57,11.707,14.334,14.334,0,0,0,1.372,1.793,8.214,8.214,0,0,0-2.321,1.758q-3.516-4.324-5.519-12.059c-.071-.233-.129-.457-.176-.668h-6.891Z"/><g class="cls-2"><path class="cls-3" d="M22.8,15.04C39.427.636,58.852-3.868,67.671,5.168c9.453,9.714,3.058,31.392-14.279,48.421"/><path class="cls-4" d="M24.594,16.918a2.558,2.558,0,0,1-3.62-.258,2.585,2.585,0,0,1,.257-3.636,2.558,2.558,0,0,1,3.62.258l0,0a2.579,2.579,0,0,1-.252,3.627Z"/></g><g class="cls-2"><path class="cls-5" d="M43.74,61.631c-15.084,10.605-31.118,13.176-38.906,5.2A16.312,16.312,0,0,1,.5,56"/><path class="cls-6" d="M42.136,59.594a2.574,2.574,0,1,1-.6,3.6l0,0A2.586,2.586,0,0,1,42.136,59.594Z"/></g><ellipse class="cls-7" cx="15.687" cy="26.641" rx="6.376" ry="5.979" transform="translate(-11.536 41.293) rotate(-87.801)"/><path class="cls-8" d="M36.335,44.382a1.892,1.892,0,0,1-.39.041l-8.934.192,5.617,9.708a4.5,4.5,0,0,1,.2.411A4.356,4.356,0,0,1,25.53,59c-.089-.123-.178-.247-.26-.384L15.714,42.065A4.05,4.05,0,0,1,17.5,36.656a4.64,4.64,0,0,1,1.413-.549,2.342,2.342,0,0,1,.723-.13l16.136-.35a2.526,2.526,0,0,1,.389,0c1.577.233,2.839,2.057,2.887,4.306S37.9,44.087,36.335,44.382Z"/><path class="cls-9" d="M45.631,34.523c.129-.02.259-.034.389-.041l8.935-.192-5.611-9.714a2.7,2.7,0,0,1-.2-.418,4.35,4.35,0,0,1,7.3-4.244,2.485,2.485,0,0,1,.259.384l9.556,16.543a4.063,4.063,0,0,1-1.788,5.416,4.764,4.764,0,0,1-1.413.548,2.547,2.547,0,0,1-.724.13l-16.135.343a1.807,1.807,0,0,1-.389,0c-1.584-.226-2.84-2.057-2.888-4.3S44.061,34.859,45.631,34.523Z"/></svg>