<svg width="24" height="23" viewBox="0 0 24 23" fill="none" xmlns="http://www.w3.org/2000/svg">
<path fill-rule="evenodd" clip-rule="evenodd" d="M7.94063 12.476C7.65973 12.2079 7.50195 11.8444 7.50195 11.4654C7.50195 11.0863 7.65973 10.7228 7.94063 10.4547L13.5966 5.05982C13.878 4.79164 14.2596 4.64102 14.6575 4.64111C14.8545 4.64116 15.0495 4.6782 15.2315 4.75012C15.4135 4.82204 15.5789 4.92744 15.7181 5.06029C15.8574 5.19314 15.9679 5.35085 16.0432 5.52441C16.1186 5.69796 16.1573 5.88397 16.1573 6.0718C16.1572 6.25964 16.1184 6.44563 16.0429 6.61915C15.9675 6.79267 15.857 6.95033 15.7176 7.08312L11.1216 11.4654L15.7176 15.8476C15.861 15.9795 15.9753 16.1372 16.054 16.3117C16.1327 16.4861 16.1742 16.6738 16.176 16.8637C16.1778 17.0536 16.14 17.242 16.0646 17.4178C15.9893 17.5936 15.878 17.7533 15.7372 17.8876C15.5965 18.022 15.429 18.1283 15.2447 18.2003C15.0604 18.2723 14.8629 18.3085 14.6637 18.307C14.4646 18.3054 14.2677 18.2661 14.0847 18.1912C13.9016 18.1163 13.7361 18.0074 13.5976 17.8709L7.93863 12.476H7.94063Z" fill="white"/>
</svg>
