<svg width="24" height="23" viewBox="0 0 24 23" fill="none" xmlns="http://www.w3.org/2000/svg">
<path fill-rule="evenodd" clip-rule="evenodd" d="M16.0594 12.476C16.3403 12.2079 16.498 11.8444 16.498 11.4654C16.498 11.0863 16.3403 10.7228 16.0594 10.4547L10.4034 5.05982C10.122 4.79164 9.74037 4.64102 9.34251 4.64111C9.14551 4.64116 8.95045 4.6782 8.76847 4.75012C8.58648 4.82204 8.42113 4.92744 8.28187 5.06029C8.1426 5.19314 8.03214 5.35085 7.95679 5.52441C7.88145 5.69796 7.84269 5.88397 7.84274 6.0718C7.84279 6.25964 7.88163 6.44563 7.95707 6.61915C8.0325 6.79267 8.14303 6.95033 8.28237 7.08312L12.8784 11.4654L8.28237 15.8476C8.13904 15.9795 8.02469 16.1372 7.94599 16.3117C7.86729 16.4861 7.82582 16.6738 7.824 16.8637C7.82217 17.0536 7.86003 17.242 7.93537 17.4178C8.0107 17.5936 8.122 17.7533 8.26277 17.8876C8.40354 18.022 8.57097 18.1283 8.75528 18.2003C8.93958 18.2723 9.13709 18.3085 9.33626 18.307C9.53542 18.3054 9.73227 18.2661 9.91531 18.1912C10.0984 18.1163 10.2639 18.0074 10.4024 17.8709L16.0614 12.476H16.0594Z" fill="white"/>
</svg>
