<svg width="25" height="25" viewBox="0 0 25 25" fill="none" xmlns="http://www.w3.org/2000/svg">
<path d="M12.4997 2.08334C11.1317 2.08334 9.7772 2.35277 8.51339 2.87626C7.24958 3.39974 6.10126 4.16703 5.13398 5.13431C3.18047 7.08781 2.08301 9.73733 2.08301 12.5C2.08301 17.1042 5.07259 21.0104 9.20801 22.3958C9.72884 22.4792 9.89551 22.1563 9.89551 21.875C9.89551 21.6354 9.89551 20.9792 9.89551 20.1146C7.01009 20.7396 6.39551 18.7188 6.39551 18.7188C5.91634 17.5104 5.23926 17.1875 5.23926 17.1875C4.29134 16.5417 5.31217 16.5625 5.31217 16.5625C6.35384 16.6354 6.90592 17.6354 6.90592 17.6354C7.81217 19.2188 9.34342 18.75 9.93717 18.5C10.0309 17.8229 10.3018 17.3646 10.5934 17.1042C8.28092 16.8438 5.85384 15.9479 5.85384 11.9792C5.85384 10.8229 6.24967 9.89584 6.92676 9.15625C6.82259 8.89584 6.45801 7.8125 7.03092 6.40625C7.03092 6.40625 7.90592 6.125 9.89551 7.46875C10.7184 7.23959 11.6143 7.125 12.4997 7.125C13.3851 7.125 14.2809 7.23959 15.1038 7.46875C17.0934 6.125 17.9684 6.40625 17.9684 6.40625C18.5413 7.8125 18.1768 8.89584 18.0726 9.15625C18.7497 9.89584 19.1455 10.8229 19.1455 11.9792C19.1455 15.9583 16.708 16.8333 14.3851 17.0938C14.7601 17.4167 15.1038 18.0521 15.1038 19.0208C15.1038 20.4167 15.1038 21.5417 15.1038 21.875C15.1038 22.1563 15.2705 22.4896 15.8018 22.3958C19.9372 21 22.9163 17.1042 22.9163 12.5C22.9163 11.1321 22.6469 9.77752 22.1234 8.51372C21.5999 7.24991 20.8326 6.10158 19.8654 5.13431C18.8981 4.16703 17.7498 3.39974 16.486 2.87626C15.2222 2.35277 13.8676 2.08334 12.4997 2.08334Z" fill="#1E1E1E" fill-opacity="0.8"/>
</svg>
