<svg width="32" height="32" viewBox="0 0 32 32" fill="none" xmlns="http://www.w3.org/2000/svg">
<path d="M13.8744 0.0396411C6.22366 0.0396411 0 6.2633 0 13.914C0 21.5648 6.22366 27.7884 13.8744 27.7884C16.2132 27.7884 18.5124 27.2334 20.4548 26.1631C20.6104 26.3504 20.7829 26.5229 20.9702 26.6785L24.9343 30.6426C25.3003 31.0545 25.7467 31.3872 26.2459 31.6203C26.7452 31.8534 27.2869 31.982 27.8376 31.9983C28.3884 32.0145 28.9367 31.9179 29.4488 31.7146C29.9609 31.5112 30.4261 31.2053 30.8157 30.8157C31.2053 30.4261 31.5112 29.9609 31.7146 29.4488C31.9179 28.9367 32.0145 28.3884 31.9982 27.8376C31.982 27.2869 31.8534 26.7452 31.6203 26.2459C31.3872 25.7467 31.0545 25.3003 30.6426 24.9343L26.6785 20.9702C26.4854 20.777 26.2728 20.6043 26.0442 20.4548C27.1145 18.5124 27.7884 16.2529 27.7884 13.8744C27.7884 6.22366 21.5648 0 13.914 0L13.8744 0.0396411ZM13.8744 4.00375C19.3845 4.00375 23.7847 8.40392 23.7847 13.914C23.7847 16.5303 22.8333 18.9485 21.1684 20.7323C21.1287 20.7719 21.0891 20.8116 21.0494 20.8512C20.8622 21.0068 20.6897 21.1793 20.5341 21.3666C18.7899 22.9522 16.4114 23.864 13.8348 23.864C8.32464 23.864 3.92447 19.4638 3.92447 13.9537C3.92447 8.44356 8.32464 4.04339 13.8348 4.04339L13.8744 4.00375Z" fill="#464A53"/>
</svg>
