<svg width="19" height="15" viewBox="0 0 19 15" fill="none" xmlns="http://www.w3.org/2000/svg">
<path d="M6.3758 12.1913L2.76122 8.28756C2.56645 8.07721 2.30229 7.95903 2.02684 7.95903C1.7514 7.95903 1.48724 8.07721 1.29247 8.28756C1.0977 8.49791 0.988281 8.7832 0.988281 9.08068C0.988281 9.22798 1.01514 9.37383 1.06734 9.50992C1.11953 9.646 1.19603 9.76965 1.29247 9.87381L5.64664 14.5763C6.05289 15.0151 6.70914 15.0151 7.11539 14.5763L18.1362 2.67381C18.331 2.46346 18.4404 2.17816 18.4404 1.88068C18.4404 1.5832 18.331 1.29791 18.1362 1.08756C17.9415 0.877207 17.6773 0.759033 17.4018 0.759033C17.1264 0.759033 16.8622 0.877207 16.6675 1.08756L6.3758 12.1913Z" fill="#464A53"/>
</svg>
