<svg width="124" height="136" viewBox="0 0 124 136" fill="none" xmlns="http://www.w3.org/2000/svg">
<path d="M46.3312 106.376H76.9045V105.612H46.3312V106.376Z" fill="url(#paint0_linear_1292_5140)"/>
<path fill-rule="evenodd" clip-rule="evenodd" d="M26.4586 127.861V134H96.7771V127.861H122V112.872C122 97.7779 113.231 84.7295 100.505 78.5336C100.262 78.4154 100.018 78.2997 99.7719 78.1865L111.201 66.7126C117.156 60.7342 117.156 51.0411 111.201 45.0627L72.7738 6.48386C66.8189 0.505384 57.1641 0.505376 51.2091 6.48386L12.7823 45.0627C6.82742 51.0411 6.82741 60.7342 12.7823 66.7126L24.2164 78.1919C23.9708 78.3051 23.7267 78.4209 23.484 78.5392C10.7637 84.7373 2 97.7824 2 112.872V127.861H26.4586ZM25.5292 78.4274L24.5367 78.8851C11.6822 84.8134 2.76433 97.8032 2.76433 112.872V127.098H26.4586V99.4309C26.4586 95.214 29.8806 91.7955 34.1019 91.7955H89.1338C93.355 91.7955 96.7771 95.214 96.7771 99.4309V127.098H121.236V112.872C121.236 97.7988 112.312 84.8057 99.4518 78.8799L98.4588 78.4223L110.659 66.1741C113.227 63.5959 114.629 60.2903 114.866 56.9176C105.3 53.0879 96.7117 50.1691 88.6691 48.1363C88.9747 49.7268 89.1345 51.3674 89.1345 53.0445C89.1345 67.6656 76.9863 79.5183 62.0007 79.5183C47.0152 79.5183 34.867 67.6656 34.867 53.0445C34.867 51.3809 35.0243 49.7531 35.3251 48.1746C27.248 50.2246 18.6669 53.1482 9.11711 56.9247C9.35555 60.2949 10.7579 63.5977 13.3241 66.1741L25.5292 78.4274ZM61.6051 43.8371C77.7726 43.7593 94.0527 47.7827 114.901 56.109C114.958 52.3125 113.544 48.4978 110.659 45.6012L72.232 7.02243C66.5759 1.34392 57.4071 1.34392 51.751 7.02242L13.3242 45.6012C10.4368 48.5 9.02288 52.3181 9.08227 56.1174C29.4134 48.0947 45.4359 43.9149 61.6051 43.8371ZM96.0127 100.198C96.0127 95.9815 92.5907 92.563 88.3694 92.563H34.8662C30.645 92.563 27.2229 95.9815 27.2229 100.198V133.236H96.0127V100.198ZM35.6313 53.0445C35.6313 51.4005 35.7895 49.7932 36.0916 48.236C45.4598 46.0029 53.6488 44.9412 61.674 44.9077C69.8108 44.8738 78.2045 45.8959 87.903 48.2006C88.2096 49.7688 88.3702 51.3881 88.3702 53.0445C88.3702 67.227 76.5813 78.7547 62.0007 78.7547C47.4202 78.7547 35.6313 67.227 35.6313 53.0445Z" fill="url(#paint1_linear_1292_5140)"/>
<path d="M46.3312 106.376H76.9045V105.612H46.3312V106.376Z" stroke="url(#paint2_linear_1292_5140)" stroke-width="4"/>
<path fill-rule="evenodd" clip-rule="evenodd" d="M26.4586 127.861V134H96.7771V127.861H122V112.872C122 97.7779 113.231 84.7295 100.505 78.5336C100.262 78.4154 100.018 78.2997 99.7719 78.1865L111.201 66.7126C117.156 60.7342 117.156 51.0411 111.201 45.0627L72.7738 6.48386C66.8189 0.505384 57.1641 0.505376 51.2091 6.48386L12.7823 45.0627C6.82742 51.0411 6.82741 60.7342 12.7823 66.7126L24.2164 78.1919C23.9708 78.3051 23.7267 78.4209 23.484 78.5392C10.7637 84.7373 2 97.7824 2 112.872V127.861H26.4586ZM25.5292 78.4274L24.5367 78.8851C11.6822 84.8134 2.76433 97.8032 2.76433 112.872V127.098H26.4586V99.4309C26.4586 95.214 29.8806 91.7955 34.1019 91.7955H89.1338C93.355 91.7955 96.7771 95.214 96.7771 99.4309V127.098H121.236V112.872C121.236 97.7988 112.312 84.8057 99.4518 78.8799L98.4588 78.4223L110.659 66.1741C113.227 63.5959 114.629 60.2903 114.866 56.9176C105.3 53.0879 96.7117 50.1691 88.6691 48.1363C88.9747 49.7268 89.1345 51.3674 89.1345 53.0445C89.1345 67.6656 76.9863 79.5183 62.0007 79.5183C47.0152 79.5183 34.867 67.6656 34.867 53.0445C34.867 51.3809 35.0243 49.7531 35.3251 48.1746C27.248 50.2246 18.6669 53.1482 9.11711 56.9247C9.35555 60.2949 10.7579 63.5977 13.3241 66.1741L25.5292 78.4274ZM61.6051 43.8371C77.7726 43.7593 94.0527 47.7827 114.901 56.109C114.958 52.3125 113.544 48.4978 110.659 45.6012L72.232 7.02243C66.5759 1.34392 57.4071 1.34392 51.751 7.02242L13.3242 45.6012C10.4368 48.5 9.02288 52.3181 9.08227 56.1174C29.4134 48.0947 45.4359 43.9149 61.6051 43.8371ZM96.0127 100.198C96.0127 95.9815 92.5907 92.563 88.3694 92.563H34.8662C30.645 92.563 27.2229 95.9815 27.2229 100.198V133.236H96.0127V100.198ZM35.6313 53.0445C35.6313 51.4005 35.7895 49.7932 36.0916 48.236C45.4598 46.0029 53.6488 44.9412 61.674 44.9077C69.8108 44.8738 78.2045 45.8959 87.903 48.2006C88.2096 49.7688 88.3702 51.3881 88.3702 53.0445C88.3702 67.227 76.5813 78.7547 62.0007 78.7547C47.4202 78.7547 35.6313 67.227 35.6313 53.0445Z" stroke="url(#paint3_linear_1292_5140)" stroke-width="4"/>
<defs>
<linearGradient id="paint0_linear_1292_5140" x1="103.995" y1="-177.783" x2="-77.5405" y2="-145.69" gradientUnits="userSpaceOnUse">
<stop stop-color="#D39CFF"/>
<stop offset="0.549209" stop-color="#B4C5FE" stop-opacity="0.852278"/>
<stop offset="0.856527" stop-color="#93F1FE" stop-opacity="0.695417"/>
<stop offset="1" stop-color="#F0DEFF" stop-opacity="0.32"/>
</linearGradient>
<linearGradient id="paint1_linear_1292_5140" x1="103.995" y1="-177.783" x2="-77.5405" y2="-145.69" gradientUnits="userSpaceOnUse">
<stop stop-color="#D39CFF"/>
<stop offset="0.549209" stop-color="#B4C5FE" stop-opacity="0.852278"/>
<stop offset="0.856527" stop-color="#93F1FE" stop-opacity="0.695417"/>
<stop offset="1" stop-color="#F0DEFF" stop-opacity="0.32"/>
</linearGradient>
<linearGradient id="paint2_linear_1292_5140" x1="103.995" y1="-177.783" x2="-77.5405" y2="-145.69" gradientUnits="userSpaceOnUse">
<stop stop-color="#D39CFF"/>
<stop offset="0.549209" stop-color="#B4C5FE" stop-opacity="0.852278"/>
<stop offset="0.856527" stop-color="#93F1FE" stop-opacity="0.695417"/>
<stop offset="1" stop-color="#F0DEFF" stop-opacity="0.32"/>
</linearGradient>
<linearGradient id="paint3_linear_1292_5140" x1="103.995" y1="-177.783" x2="-77.5405" y2="-145.69" gradientUnits="userSpaceOnUse">
<stop stop-color="#D39CFF"/>
<stop offset="0.549209" stop-color="#B4C5FE" stop-opacity="0.852278"/>
<stop offset="0.856527" stop-color="#93F1FE" stop-opacity="0.695417"/>
<stop offset="1" stop-color="#F0DEFF" stop-opacity="0.32"/>
</linearGradient>
</defs>
</svg>
