<svg width="186" height="122" viewBox="0 0 186 122" fill="none" xmlns="http://www.w3.org/2000/svg">
<path d="M13.388 51.6119V61.4327L12.6121 62.1475C9.00994 65.4663 5.70369 72.1083 3.96988 78.0587C3.07894 81.1164 3.47255 81.8087 3.62896 82.006C3.73241 82.1365 3.95532 82.3392 4.46514 82.5864C4.52214 82.6102 4.58343 82.6353 4.64976 82.6624C4.76884 82.7111 4.90623 82.7674 5.0619 82.8336C5.11654 82.8569 5.16216 82.8768 5.20139 82.8942C5.47831 82.9959 5.78507 83.0962 6.12551 83.1974C6.1633 83.2079 6.20203 83.2192 6.24093 83.2314C6.77933 83.3884 7.39937 83.5481 8.11532 83.7189L8.13521 83.7215C8.41056 83.7573 8.74487 83.7962 9.08622 83.8343C9.30357 83.8586 9.52861 83.8831 9.74186 83.9063C10.1732 83.9532 10.5571 83.995 10.7303 84.0191C11.1916 84.0834 11.5917 84.2862 11.889 84.6275C12.0025 84.7578 12.0885 84.8968 12.1524 85.0192C11.3503 85.4351 10.6834 85.9613 10.2028 86.5637C10.1659 86.4918 10.1358 86.4248 10.1119 86.3679C9.961 86.3508 9.77088 86.3302 9.55667 86.3069C9.33153 86.2824 9.07977 86.255 8.81894 86.2259C8.17882 86.1543 7.3926 86.0632 7.06541 85.9844C6.52717 85.8548 6.00927 85.6885 5.53267 85.5314C5.47312 85.5117 5.40943 85.497 5.2718 85.4651L5.25028 85.4602C5.12081 85.4302 4.91904 85.3831 4.7095 85.3034C4.56592 85.2488 4.35139 85.152 4.22069 85.093C4.17389 85.0719 4.13785 85.0557 4.11965 85.0479C4.06434 85.0244 3.99717 84.9976 3.92094 84.9671L3.91842 84.9661L3.91675 84.9655C3.51461 84.805 2.86389 84.5454 2.37094 84.1436C2.31064 84.0944 2.25637 84.0406 2.20817 83.9831C0.783997 82.7517 0.642357 80.8764 1.65951 77.3855C3.44517 71.2572 6.91162 64.1274 10.9816 60.3777V51.6119C10.9816 30.9613 29.4728 14.2207 52.2829 14.2207C59.0863 14.2207 65.5055 15.71 71.1645 18.3481C70.1645 18.7384 69.1954 19.1907 68.262 19.7C63.4037 17.7285 58.0003 16.6271 52.2829 16.6271C30.5711 16.6271 13.388 32.5099 13.388 51.6119Z" fill="url(#paint0_linear_1292_5229)"/>
<path d="M13.3822 98.3219C10.9664 102.773 12.3703 110.321 16.5826 111.682C18.7723 112.558 21.6422 113.147 24.5678 113.748C29.6804 114.797 34.9631 115.882 37.0837 118.592C37.649 119.314 38.4274 120.104 39.3446 120.104H80.3487C80.7881 120.104 81.3756 120.065 81.9574 119.981L82.0118 119.973C82.2273 119.942 82.4415 119.904 82.6464 119.859C83.7323 119.625 84.5583 119.213 83.9584 118.592C73.1035 107.353 76.739 96.0399 77.4412 93.907C77.4412 91.3177 79.4358 88.4207 82.0227 84.6634C85.4043 79.7519 89.798 73.3702 92.072 64.2841C91.1568 64.7643 90.2086 65.19 89.2317 65.5569C86.9663 73.2282 83.1398 78.7974 80.0406 83.2987L79.9874 83.376C78.7357 85.1939 77.5294 86.946 76.6459 88.5771C75.8207 90.1004 75.1416 91.7535 75.0462 93.4917C74.1439 96.336 71.346 106.832 79.9742 117.698H39.5313C39.4705 117.651 39.39 117.58 39.2914 117.476C39.1917 117.371 39.0878 117.248 38.979 117.109C37.7714 115.566 36.0031 114.553 34.233 113.827C32.4348 113.089 30.383 112.549 28.3694 112.094C27.3308 111.859 26.1382 111.614 24.9856 111.376C24.0542 111.185 23.1489 110.998 22.3723 110.827C20.4506 110.404 18.7871 109.972 17.4763 109.447L17.4003 109.417L17.3225 109.392C16.7812 109.217 16.1834 108.749 15.6546 107.823C15.127 106.898 14.759 105.661 14.6453 104.3C14.4963 102.516 14.7935 100.907 15.3776 99.7092V98.1637C14.7246 98.2266 14.0589 98.2795 13.3822 98.3219Z" fill="url(#paint1_linear_1292_5229)"/>
<path fill-rule="evenodd" clip-rule="evenodd" d="M92.4026 48.8109C97.1855 46.0495 98.8243 39.9336 96.0628 35.1506C93.3014 30.3677 87.1855 28.729 82.4026 31.4904C77.6197 34.2518 75.9809 40.3677 78.7423 45.1506C81.5038 49.9336 87.6197 51.5723 92.4026 48.8109ZM91.1526 46.6458C94.7398 44.5748 95.9688 39.9878 93.8978 36.4006C91.8267 32.8134 87.2398 31.5844 83.6526 33.6554C80.0654 35.7265 78.8363 40.3134 80.9074 43.9006C82.9785 47.4878 87.5654 48.7169 91.1526 46.6458Z" fill="url(#paint2_linear_1292_5229)"/>
<path fill-rule="evenodd" clip-rule="evenodd" d="M63.2413 47.5694C63.819 50.8534 66.9503 53.0449 70.2354 52.4643C72.0317 52.1468 73.4963 53.8923 72.8717 55.6062C71.7296 58.7405 73.3439 62.2048 76.4778 63.344L81.5528 65.1888C84.6866 66.328 88.1531 64.7106 89.2953 61.5762C89.9199 59.8624 92.1652 59.4655 93.3369 60.8619C95.4797 63.4155 99.289 63.7471 101.845 61.6022L105.985 58.1287C108.541 55.9839 108.876 52.1749 106.733 49.6212C105.561 48.2249 106.342 46.0825 108.138 45.765C111.423 45.1845 113.618 42.0515 113.04 38.7675L112.105 33.4492C111.527 30.1652 108.396 27.9738 105.111 28.5543C103.315 28.8718 101.85 27.1263 102.475 25.4124C103.617 22.2781 102.002 18.8138 98.8685 17.6746L93.7935 15.8298C90.6597 14.6906 87.1932 16.308 86.051 19.4424C85.4264 21.1562 83.181 21.5531 82.0093 20.1567C79.8665 17.603 76.0572 17.2716 73.5011 19.4164L69.3616 22.8899C66.8055 25.0347 66.4705 28.8437 68.6133 31.3973C69.785 32.7937 69.0042 34.9361 67.2079 35.2536C63.9227 35.8341 61.7281 38.9671 62.3058 42.2511L63.2413 47.5694ZM88.4348 20.3089C89.0972 18.4913 91.1073 17.5534 92.9246 18.214L97.9996 20.0588C99.8169 20.7194 100.753 22.7283 100.091 24.5459C98.7972 28.0952 101.83 31.7099 105.55 31.0524C107.455 30.7158 109.271 31.9865 109.606 33.8909L110.542 39.2092C110.877 41.1136 109.604 42.9303 107.699 43.267C103.979 43.9244 102.362 48.361 104.789 51.2528C106.031 52.7336 105.837 54.9424 104.355 56.1861L100.215 59.6596C98.7328 60.9034 96.5239 60.7112 95.2813 59.2303C92.8549 56.3386 88.2049 57.1604 86.9115 60.7096C86.2491 62.5273 84.239 63.4652 82.4217 62.8045L77.3467 60.9597C75.5294 60.2991 74.5932 58.2902 75.2556 56.4727C76.549 52.9234 73.516 49.3087 69.796 49.9662C67.891 50.3029 66.0752 49.0321 65.7402 47.1277L64.8046 41.8094C64.4697 39.905 65.7424 38.0883 67.6474 37.7516C71.3673 37.0942 72.9842 32.6576 70.5577 29.7658C69.3151 28.285 69.5093 26.0762 70.9916 24.8324L75.1311 21.3589C76.6134 20.1152 78.8224 20.3074 80.0649 21.7883C82.4914 24.68 87.1413 23.8582 88.4348 20.3089Z" fill="url(#paint3_linear_1292_5229)"/>
<path d="M13.388 51.6119V61.4327L12.6121 62.1475C9.00994 65.4663 5.70369 72.1083 3.96988 78.0587C3.07894 81.1164 3.47255 81.8087 3.62896 82.006C3.73241 82.1365 3.95532 82.3392 4.46514 82.5864C4.52214 82.6102 4.58343 82.6353 4.64976 82.6624C4.76884 82.7111 4.90623 82.7674 5.0619 82.8336C5.11654 82.8569 5.16216 82.8768 5.20139 82.8942C5.47831 82.9959 5.78507 83.0962 6.12551 83.1974C6.1633 83.2079 6.20203 83.2192 6.24093 83.2314C6.77933 83.3884 7.39937 83.5481 8.11532 83.7189L8.13521 83.7215C8.41056 83.7573 8.74487 83.7962 9.08622 83.8343C9.30357 83.8586 9.52861 83.8831 9.74186 83.9063C10.1732 83.9532 10.5571 83.995 10.7303 84.0191C11.1916 84.0834 11.5917 84.2862 11.889 84.6275C12.0025 84.7578 12.0885 84.8968 12.1524 85.0192C11.3503 85.4351 10.6834 85.9613 10.2028 86.5637C10.1659 86.4918 10.1358 86.4248 10.1119 86.3679C9.961 86.3508 9.77088 86.3302 9.55667 86.3069C9.33153 86.2824 9.07977 86.255 8.81894 86.2259C8.17882 86.1543 7.3926 86.0632 7.06541 85.9844C6.52717 85.8548 6.00927 85.6885 5.53267 85.5314C5.47312 85.5117 5.40943 85.497 5.2718 85.4651L5.25028 85.4602C5.12081 85.4302 4.91904 85.3831 4.7095 85.3034C4.56592 85.2488 4.35139 85.152 4.22069 85.093C4.17389 85.0719 4.13785 85.0557 4.11965 85.0479C4.06434 85.0244 3.99717 84.9976 3.92094 84.9671L3.91842 84.9661L3.91675 84.9655C3.51461 84.805 2.86389 84.5454 2.37094 84.1436C2.31064 84.0944 2.25637 84.0406 2.20817 83.9831C0.783997 82.7517 0.642357 80.8764 1.65951 77.3855C3.44517 71.2572 6.91162 64.1274 10.9816 60.3777V51.6119C10.9816 30.9613 29.4728 14.2207 52.2829 14.2207C59.0863 14.2207 65.5055 15.71 71.1645 18.3481C70.1645 18.7384 69.1954 19.1907 68.262 19.7C63.4037 17.7285 58.0003 16.6271 52.2829 16.6271C30.5711 16.6271 13.388 32.5099 13.388 51.6119Z" stroke="url(#paint4_linear_1292_5229)" stroke-width="2"/>
<path d="M13.3822 98.3219C10.9664 102.773 12.3703 110.321 16.5826 111.682C18.7723 112.558 21.6422 113.147 24.5678 113.748C29.6804 114.797 34.9631 115.882 37.0837 118.592C37.649 119.314 38.4274 120.104 39.3446 120.104H80.3487C80.7881 120.104 81.3756 120.065 81.9574 119.981L82.0118 119.973C82.2273 119.942 82.4415 119.904 82.6464 119.859C83.7323 119.625 84.5583 119.213 83.9584 118.592C73.1035 107.353 76.739 96.0399 77.4412 93.907C77.4412 91.3177 79.4358 88.4207 82.0227 84.6634C85.4043 79.7519 89.798 73.3702 92.072 64.2841C91.1568 64.7643 90.2086 65.19 89.2317 65.5569C86.9663 73.2282 83.1398 78.7974 80.0406 83.2987L79.9874 83.376C78.7357 85.1939 77.5294 86.946 76.6459 88.5771C75.8207 90.1004 75.1416 91.7535 75.0462 93.4917C74.1439 96.336 71.346 106.832 79.9742 117.698H39.5313C39.4705 117.651 39.39 117.58 39.2914 117.476C39.1917 117.371 39.0878 117.248 38.979 117.109C37.7714 115.566 36.0031 114.553 34.233 113.827C32.4348 113.089 30.383 112.549 28.3694 112.094C27.3308 111.859 26.1382 111.614 24.9856 111.376C24.0542 111.185 23.1489 110.998 22.3723 110.827C20.4506 110.404 18.7871 109.972 17.4763 109.447L17.4003 109.417L17.3225 109.392C16.7812 109.217 16.1834 108.749 15.6546 107.823C15.127 106.898 14.759 105.661 14.6453 104.3C14.4963 102.516 14.7935 100.907 15.3776 99.7092V98.1637C14.7246 98.2266 14.0589 98.2795 13.3822 98.3219Z" stroke="url(#paint5_linear_1292_5229)" stroke-width="2"/>
<path fill-rule="evenodd" clip-rule="evenodd" d="M92.4026 48.8109C97.1855 46.0495 98.8243 39.9336 96.0628 35.1506C93.3014 30.3677 87.1855 28.729 82.4026 31.4904C77.6197 34.2518 75.9809 40.3677 78.7423 45.1506C81.5038 49.9336 87.6197 51.5723 92.4026 48.8109ZM91.1526 46.6458C94.7398 44.5748 95.9688 39.9878 93.8978 36.4006C91.8267 32.8134 87.2398 31.5844 83.6526 33.6554C80.0654 35.7265 78.8363 40.3134 80.9074 43.9006C82.9785 47.4878 87.5654 48.7169 91.1526 46.6458Z" stroke="url(#paint6_linear_1292_5229)" stroke-width="2"/>
<path fill-rule="evenodd" clip-rule="evenodd" d="M63.2413 47.5694C63.819 50.8534 66.9503 53.0449 70.2354 52.4643C72.0317 52.1468 73.4963 53.8923 72.8717 55.6062C71.7296 58.7405 73.3439 62.2048 76.4778 63.344L81.5528 65.1888C84.6866 66.328 88.1531 64.7106 89.2953 61.5762C89.9199 59.8624 92.1652 59.4655 93.3369 60.8619C95.4797 63.4155 99.289 63.7471 101.845 61.6022L105.985 58.1287C108.541 55.9839 108.876 52.1749 106.733 49.6212C105.561 48.2249 106.342 46.0825 108.138 45.765C111.423 45.1845 113.618 42.0515 113.04 38.7675L112.105 33.4492C111.527 30.1652 108.396 27.9738 105.111 28.5543C103.315 28.8718 101.85 27.1263 102.475 25.4124C103.617 22.2781 102.002 18.8138 98.8685 17.6746L93.7935 15.8298C90.6597 14.6906 87.1932 16.308 86.051 19.4424C85.4264 21.1562 83.181 21.5531 82.0093 20.1567C79.8665 17.603 76.0572 17.2716 73.5011 19.4164L69.3616 22.8899C66.8055 25.0347 66.4705 28.8437 68.6133 31.3973C69.785 32.7937 69.0042 34.9361 67.2079 35.2536C63.9227 35.8341 61.7281 38.9671 62.3058 42.2511L63.2413 47.5694ZM88.4348 20.3089C89.0972 18.4913 91.1073 17.5534 92.9246 18.214L97.9996 20.0588C99.8169 20.7194 100.753 22.7283 100.091 24.5459C98.7972 28.0952 101.83 31.7099 105.55 31.0524C107.455 30.7158 109.271 31.9865 109.606 33.8909L110.542 39.2092C110.877 41.1136 109.604 42.9303 107.699 43.267C103.979 43.9244 102.362 48.361 104.789 51.2528C106.031 52.7336 105.837 54.9424 104.355 56.1861L100.215 59.6596C98.7328 60.9034 96.5239 60.7112 95.2813 59.2303C92.8549 56.3386 88.2049 57.1604 86.9115 60.7096C86.2491 62.5273 84.239 63.4652 82.4217 62.8045L77.3467 60.9597C75.5294 60.2991 74.5932 58.2902 75.2556 56.4727C76.549 52.9234 73.516 49.3087 69.796 49.9662C67.891 50.3029 66.0752 49.0321 65.7402 47.1277L64.8046 41.8094C64.4697 39.905 65.7424 38.0883 67.6474 37.7516C71.3673 37.0942 72.9842 32.6576 70.5577 29.7658C69.3151 28.285 69.5093 26.0762 70.9916 24.8324L75.1311 21.3589C76.6134 20.1152 78.8224 20.3074 80.0649 21.7883C82.4914 24.68 87.1413 23.8582 88.4348 20.3089Z" stroke="url(#paint7_linear_1292_5229)" stroke-width="2"/>
<path d="M10.2539 85.1846C10.856 85.1989 11.2454 85.7143 11.6693 86.0777C11.9096 86.2836 12.3731 86.6068 12.4728 86.9306C12.5625 87.2222 12.5902 87.5236 12.5902 87.8299C12.5902 88.6278 11.9227 89.2467 11.9227 90.0673C11.9227 90.4326 11.8671 90.8941 12.1205 91.1922C12.3611 91.4753 12.5279 91.769 12.6335 92.1255C12.6706 92.2507 12.6458 92.4099 12.6458 92.5396C12.6458 92.7771 12.5498 92.834 12.4759 93.031C12.4065 93.216 12.2735 93.3448 12.2132 93.5409C12.1756 93.663 12.2008 93.8184 12.2008 93.9458C12.2008 94.2585 12.5164 94.6167 12.7355 94.8358C13.0066 95.1069 13.2265 95.2885 13.4524 95.5898C13.6423 95.843 13.8847 96.1423 14.0242 96.4211C14.132 96.6369 14.259 97.0112 14.259 97.2555C14.259 97.7267 14.3146 98.1796 14.3146 98.6462" stroke="#AFE6F7" stroke-width="4" stroke-linecap="round"/>
<path d="M176.541 61.8223C176.019 61.8346 175.682 62.2763 175.315 62.5877C175.107 62.7643 174.705 63.0412 174.619 63.3188C174.541 63.5687 174.517 63.827 174.517 64.0895C174.517 64.7734 175.095 65.3038 175.095 66.0072C175.095 66.3202 175.144 66.7158 174.924 66.9713C174.716 67.2139 174.571 67.4657 174.48 67.7712C174.448 67.8785 174.469 68.015 174.469 68.1262C174.469 68.3297 174.552 68.3784 174.616 68.5473C174.676 68.7058 174.792 68.8163 174.844 68.9843C174.876 69.089 174.855 69.2222 174.855 69.3313C174.855 69.5994 174.581 69.9064 174.391 70.0941C174.157 70.3266 173.966 70.4822 173.77 70.7404C173.606 70.9574 173.396 71.2139 173.275 71.4529C173.182 71.6379 173.072 71.9587 173.072 72.1681C173.072 72.5719 173.023 72.96 173.023 73.36" stroke="#C9ACFE" stroke-width="4" stroke-linecap="round"/>
<path d="M173.826 33.0473V41.4646L174.498 42.0772C177.618 44.9217 180.482 50.6144 181.984 55.7144C182.756 58.3351 182.415 58.9285 182.279 59.0976C182.19 59.2094 181.997 59.3831 181.555 59.595L181.497 59.6188L181.395 59.6602C181.292 59.7019 181.173 59.7501 181.038 59.8069L180.984 59.8297L180.943 59.8474L180.917 59.8588C180.677 59.946 180.412 60.032 180.117 60.1187L180.086 60.1272L180.057 60.1358L180.017 60.1479C179.55 60.2824 179.013 60.4193 178.393 60.5657L178.376 60.5679C178.137 60.5986 177.848 60.6319 177.552 60.6646C177.364 60.6854 177.169 60.7064 176.984 60.7263C176.61 60.7665 176.278 60.8023 176.128 60.823C175.728 60.8781 175.382 61.0519 175.124 61.3444C175.026 61.4561 174.951 61.5752 174.896 61.6801C175.591 62.0366 176.168 62.4876 176.585 63.0039C176.617 62.9422 176.643 62.8849 176.664 62.8361C176.792 62.8217 176.954 62.8043 177.136 62.7847L177.14 62.7842L177.142 62.784L177.144 62.7838L177.407 62.7554C177.528 62.7424 177.655 62.7286 177.784 62.7144C178.338 62.653 179.019 62.5749 179.303 62.5074C179.769 62.3963 180.217 62.2538 180.63 62.1191C180.682 62.1023 180.737 62.0896 180.856 62.0623L180.875 62.0581C180.987 62.0324 181.162 61.992 181.343 61.9237C181.468 61.8769 181.654 61.7939 181.767 61.7434C181.807 61.7253 181.839 61.7114 181.854 61.7047C181.903 61.6842 181.963 61.6607 182.03 61.634C182.379 61.4965 182.942 61.2741 183.369 60.9296C183.421 60.8875 183.468 60.8414 183.51 60.7921C184.744 59.7367 184.867 58.1294 183.985 55.1374C182.439 49.885 179.436 43.7742 175.91 40.5604V33.0473C175.91 15.3481 159.892 1 140.133 1C140.064 1 139.995 1.00017 139.926 1.00052C139.858 1.00017 139.79 1 139.722 1C124.218 1 111.041 10.0245 106.252 22.5881C107.087 22.2839 107.949 22.0101 108.834 21.7688C112.07 14.6137 118.296 8.7915 126.178 5.63556C126.215 5.65568 126.253 5.67591 126.291 5.69625C130.441 4.02997 135.05 3.08889 139.926 3.06307C141.843 3.07332 143.717 3.22793 145.538 3.51497L145.583 3.4508C161.737 5.77972 173.826 18.2931 173.826 33.0473Z" fill="url(#paint8_linear_1292_5229)"/>
<path d="M110.489 55.4498C111.805 57.6887 113.162 59.6391 114.37 61.3751C116.611 64.5955 118.339 67.0785 118.339 69.2977C118.947 71.1258 122.097 80.822 112.694 90.4549C112.174 90.9873 112.89 91.3398 113.83 91.5409C114.008 91.5789 114.193 91.6115 114.38 91.6388L114.427 91.6456C114.931 91.7171 115.44 91.751 115.821 91.751H151.341C152.135 91.751 152.809 91.074 153.299 90.4549C155.136 88.132 159.712 87.2024 164.141 86.3027C166.675 85.7879 169.161 85.2829 171.058 84.5322C174.707 83.3656 175.923 76.8968 173.831 73.0816C173.244 73.0452 172.667 72.9999 172.101 72.9459V74.2685C172.608 75.295 172.866 76.6751 172.736 78.2054C172.638 79.3715 172.319 80.4323 171.862 81.2244C171.404 82.0183 170.886 82.4196 170.417 82.5695L170.35 82.5911L170.284 82.6171C169.149 83.0665 167.708 83.4373 166.043 83.7998C165.37 83.9463 164.586 84.1061 163.779 84.2705C162.781 84.4739 161.748 84.6845 160.848 84.8856C159.104 85.2756 157.326 85.7384 155.769 86.3705C154.235 86.9927 152.703 87.8611 151.657 89.1839C151.563 89.3031 151.473 89.4083 151.387 89.4983C151.301 89.5873 151.231 89.6486 151.179 89.6885H116.145C123.619 80.3755 121.196 71.3796 120.414 68.9417C120.331 67.452 119.743 66.0352 119.028 64.7295C118.263 63.3315 117.218 61.8299 116.134 60.2718L116.087 60.2055C115.179 58.8996 114.198 57.4888 113.222 55.9388C112.292 55.8092 111.38 55.6456 110.489 55.4498Z" fill="url(#paint9_linear_1292_5229)"/>
<path fill-rule="evenodd" clip-rule="evenodd" d="M123.239 23.9505C122.339 23.4311 121.189 23.7386 120.67 24.6374C120.151 25.5362 120.46 26.6859 121.36 27.2053C122.259 27.7247 123.409 27.4171 123.928 26.5184C124.447 25.6196 124.138 24.4699 123.239 23.9505ZM122.705 24.8759C122.316 24.6519 121.82 24.7845 121.597 25.1722C121.373 25.5599 121.506 26.0558 121.894 26.2798C122.282 26.5039 122.778 26.3712 123.002 25.9836C123.226 25.5959 123.093 25.0999 122.705 24.8759Z" fill="url(#paint10_linear_1292_5229)"/>
<path fill-rule="evenodd" clip-rule="evenodd" d="M115.959 17.0105C114.741 17.7126 114.325 19.2684 115.028 20.4856C115.413 21.1511 114.933 21.9827 114.164 21.9824C112.758 21.9818 111.619 23.1204 111.62 24.5256L111.621 26.8011C111.621 28.2062 112.761 29.3458 114.167 29.3463C114.936 29.3466 115.417 30.1786 115.033 30.8438C114.33 32.0604 114.748 33.6166 115.966 34.3197L117.938 35.4582C119.156 36.1613 120.712 35.745 121.414 34.5284C121.799 33.8632 122.759 33.8636 123.144 34.5291C123.847 35.7463 125.404 36.1638 126.622 35.4617L128.593 34.3248C129.81 33.6227 130.226 32.0669 129.523 30.8497C129.138 30.1842 129.618 29.3526 130.387 29.3529C131.793 29.3535 132.932 28.2149 132.931 26.8098L132.931 24.5342C132.93 23.1291 131.79 21.9895 130.384 21.989C129.615 21.9887 129.135 21.1567 129.519 20.4915C130.221 19.2749 129.803 17.7187 128.586 17.0157L126.614 15.8771C125.396 15.174 123.839 15.5903 123.137 16.8069C122.753 17.4722 121.792 17.4718 121.407 16.8062C120.704 15.589 119.147 15.1715 117.93 15.8735L115.959 17.0105ZM130.385 23.0578C131.2 23.0582 131.861 23.719 131.861 24.5338L131.862 26.8093C131.862 27.6242 131.202 28.2844 130.387 28.2841C128.795 28.2834 127.801 30.0055 128.597 31.3838C129.005 32.0896 128.763 32.9918 128.058 33.3989L126.086 34.5359C125.381 34.943 124.478 34.7009 124.07 33.995C123.273 32.6168 121.284 32.616 120.488 33.9936C120.081 34.6991 119.178 34.9405 118.472 34.5328L116.5 33.3942C115.794 32.9865 115.552 32.0841 115.959 31.3786C116.754 30.001 115.759 28.2781 114.167 28.2775C113.352 28.2772 112.69 27.6163 112.69 26.8015L112.689 24.526C112.689 23.7112 113.349 23.0509 114.165 23.0512C115.757 23.0519 116.751 21.3298 115.954 19.9515C115.546 19.2457 115.788 18.3435 116.494 17.9364L118.465 16.7994C119.171 16.3923 120.074 16.6344 120.481 17.3403C121.278 18.7186 123.268 18.7194 124.063 17.3417C124.47 16.6362 125.373 16.3948 126.079 16.8025L128.051 17.9411C128.757 18.3488 129 19.2512 128.592 19.9567C127.797 21.3343 128.793 23.0572 130.385 23.0578Z" fill="url(#paint11_linear_1292_5229)"/>
<path d="M173.826 33.0473V41.4646L174.498 42.0772C177.618 44.9217 180.482 50.6144 181.984 55.7144C182.756 58.3351 182.415 58.9285 182.279 59.0976C182.19 59.2094 181.997 59.3831 181.555 59.595L181.497 59.6188L181.395 59.6602C181.292 59.7019 181.173 59.7501 181.038 59.8069L180.984 59.8297L180.943 59.8474L180.917 59.8588C180.677 59.946 180.412 60.032 180.117 60.1187L180.086 60.1272L180.057 60.1358L180.017 60.1479C179.55 60.2824 179.013 60.4193 178.393 60.5657L178.376 60.5679C178.137 60.5986 177.848 60.6319 177.552 60.6646C177.364 60.6854 177.169 60.7064 176.984 60.7263C176.61 60.7665 176.278 60.8023 176.128 60.823C175.728 60.8781 175.382 61.0519 175.124 61.3444C175.026 61.4561 174.951 61.5752 174.896 61.6801C175.591 62.0366 176.168 62.4876 176.585 63.0039C176.617 62.9422 176.643 62.8849 176.664 62.8361C176.792 62.8217 176.954 62.8043 177.136 62.7847L177.14 62.7842L177.142 62.784L177.144 62.7838L177.407 62.7554C177.528 62.7424 177.655 62.7286 177.784 62.7144C178.338 62.653 179.019 62.5749 179.303 62.5074C179.769 62.3963 180.217 62.2538 180.63 62.1191C180.682 62.1023 180.737 62.0896 180.856 62.0623L180.875 62.0581C180.987 62.0324 181.162 61.992 181.343 61.9237C181.468 61.8769 181.654 61.7939 181.767 61.7434C181.807 61.7253 181.839 61.7114 181.854 61.7047C181.903 61.6842 181.963 61.6607 182.03 61.634C182.379 61.4965 182.942 61.2741 183.369 60.9296C183.421 60.8875 183.468 60.8414 183.51 60.7921C184.744 59.7367 184.867 58.1294 183.985 55.1374C182.439 49.885 179.436 43.7742 175.91 40.5604V33.0473C175.91 15.3481 159.892 1 140.133 1C140.064 1 139.995 1.00017 139.926 1.00052C139.858 1.00017 139.79 1 139.722 1C124.218 1 111.041 10.0245 106.252 22.5881C107.087 22.2839 107.949 22.0101 108.834 21.7688C112.07 14.6137 118.296 8.7915 126.178 5.63556C126.215 5.65568 126.253 5.67591 126.291 5.69625C130.441 4.02997 135.05 3.08889 139.926 3.06307C141.843 3.07332 143.717 3.22793 145.538 3.51497L145.583 3.4508C161.737 5.77972 173.826 18.2931 173.826 33.0473Z" stroke="url(#paint12_linear_1292_5229)" stroke-width="2"/>
<path d="M110.489 55.4498C111.805 57.6887 113.162 59.6391 114.37 61.3751C116.611 64.5955 118.339 67.0785 118.339 69.2977C118.947 71.1258 122.097 80.822 112.694 90.4549C112.174 90.9873 112.89 91.3398 113.83 91.5409C114.008 91.5789 114.193 91.6115 114.38 91.6388L114.427 91.6456C114.931 91.7171 115.44 91.751 115.821 91.751H151.341C152.135 91.751 152.809 91.074 153.299 90.4549C155.136 88.132 159.712 87.2024 164.141 86.3027C166.675 85.7879 169.161 85.2829 171.058 84.5322C174.707 83.3656 175.923 76.8968 173.831 73.0816C173.244 73.0452 172.667 72.9999 172.101 72.9459V74.2685C172.608 75.295 172.866 76.6751 172.736 78.2054C172.638 79.3715 172.319 80.4323 171.862 81.2244C171.404 82.0183 170.886 82.4196 170.417 82.5695L170.35 82.5911L170.284 82.6171C169.149 83.0665 167.708 83.4373 166.043 83.7998C165.37 83.9463 164.586 84.1061 163.779 84.2705C162.781 84.4739 161.748 84.6845 160.848 84.8856C159.104 85.2756 157.326 85.7384 155.769 86.3705C154.235 86.9927 152.703 87.8611 151.657 89.1839C151.563 89.3031 151.473 89.4083 151.387 89.4983C151.301 89.5873 151.231 89.6486 151.179 89.6885H116.145C123.619 80.3755 121.196 71.3796 120.414 68.9417C120.331 67.452 119.743 66.0352 119.028 64.7295C118.263 63.3315 117.218 61.8299 116.134 60.2718L116.087 60.2055C115.179 58.8996 114.198 57.4888 113.222 55.9388C112.292 55.8092 111.38 55.6456 110.489 55.4498Z" stroke="url(#paint13_linear_1292_5229)" stroke-width="2"/>
<path fill-rule="evenodd" clip-rule="evenodd" d="M123.239 23.9505C122.339 23.4311 121.189 23.7386 120.67 24.6374C120.151 25.5362 120.46 26.6859 121.36 27.2053C122.259 27.7247 123.409 27.4171 123.928 26.5184C124.447 25.6196 124.138 24.4699 123.239 23.9505ZM122.705 24.8759C122.316 24.6519 121.82 24.7845 121.597 25.1722C121.373 25.5599 121.506 26.0558 121.894 26.2798C122.282 26.5039 122.778 26.3712 123.002 25.9836C123.226 25.5959 123.093 25.0999 122.705 24.8759Z" stroke="url(#paint14_linear_1292_5229)" stroke-width="2"/>
<path fill-rule="evenodd" clip-rule="evenodd" d="M115.959 17.0105C114.741 17.7126 114.325 19.2684 115.028 20.4856C115.413 21.1511 114.933 21.9827 114.164 21.9824C112.758 21.9818 111.619 23.1204 111.62 24.5256L111.621 26.8011C111.621 28.2062 112.761 29.3458 114.167 29.3463C114.936 29.3466 115.417 30.1786 115.033 30.8438C114.33 32.0604 114.748 33.6166 115.966 34.3197L117.938 35.4582C119.156 36.1613 120.712 35.745 121.414 34.5284C121.799 33.8632 122.759 33.8636 123.144 34.5291C123.847 35.7463 125.404 36.1638 126.622 35.4617L128.593 34.3248C129.81 33.6227 130.226 32.0669 129.523 30.8497C129.138 30.1842 129.618 29.3526 130.387 29.3529C131.793 29.3535 132.932 28.2149 132.931 26.8098L132.931 24.5342C132.93 23.1291 131.79 21.9895 130.384 21.989C129.615 21.9887 129.135 21.1567 129.519 20.4915C130.221 19.2749 129.803 17.7187 128.586 17.0157L126.614 15.8771C125.396 15.174 123.839 15.5903 123.137 16.8069C122.753 17.4722 121.792 17.4718 121.407 16.8062C120.704 15.589 119.147 15.1715 117.93 15.8735L115.959 17.0105ZM130.385 23.0578C131.2 23.0582 131.861 23.719 131.861 24.5338L131.862 26.8093C131.862 27.6242 131.202 28.2844 130.387 28.2841C128.795 28.2834 127.801 30.0055 128.597 31.3838C129.005 32.0896 128.763 32.9918 128.058 33.3989L126.086 34.5359C125.381 34.943 124.478 34.7009 124.07 33.995C123.273 32.6168 121.284 32.616 120.488 33.9936C120.081 34.6991 119.178 34.9405 118.472 34.5328L116.5 33.3942C115.794 32.9865 115.552 32.0841 115.959 31.3786C116.754 30.001 115.759 28.2781 114.167 28.2775C113.352 28.2772 112.69 27.6163 112.69 26.8015L112.689 24.526C112.689 23.7112 113.349 23.0509 114.165 23.0512C115.757 23.0519 116.751 21.3298 115.954 19.9515C115.546 19.2457 115.788 18.3435 116.494 17.9364L118.465 16.7994C119.171 16.3923 120.074 16.6344 120.481 17.3403C121.278 18.7186 123.268 18.7194 124.063 17.3417C124.47 16.6362 125.373 16.3948 126.079 16.8025L128.051 17.9411C128.757 18.3488 129 19.2512 128.592 19.9567C127.797 21.3343 128.793 23.0572 130.385 23.0578Z" stroke="url(#paint15_linear_1292_5229)" stroke-width="2"/>
<defs>
<linearGradient id="paint0_linear_1292_5229" x1="96.3082" y1="-129.992" x2="-71.51" y2="-95.4316" gradientUnits="userSpaceOnUse">
<stop stop-color="#D39CFF"/>
<stop offset="0.549209" stop-color="#B4C5FE" stop-opacity="0.852278"/>
<stop offset="0.856527" stop-color="#93F1FE" stop-opacity="0.695417"/>
<stop offset="1" stop-color="#F0DEFF" stop-opacity="0.32"/>
</linearGradient>
<linearGradient id="paint1_linear_1292_5229" x1="96.3082" y1="-129.992" x2="-71.51" y2="-95.4316" gradientUnits="userSpaceOnUse">
<stop stop-color="#D39CFF"/>
<stop offset="0.549209" stop-color="#B4C5FE" stop-opacity="0.852278"/>
<stop offset="0.856527" stop-color="#93F1FE" stop-opacity="0.695417"/>
<stop offset="1" stop-color="#F0DEFF" stop-opacity="0.32"/>
</linearGradient>
<linearGradient id="paint2_linear_1292_5229" x1="96.3082" y1="-129.992" x2="-71.51" y2="-95.4316" gradientUnits="userSpaceOnUse">
<stop stop-color="#D39CFF"/>
<stop offset="0.549209" stop-color="#B4C5FE" stop-opacity="0.852278"/>
<stop offset="0.856527" stop-color="#93F1FE" stop-opacity="0.695417"/>
<stop offset="1" stop-color="#F0DEFF" stop-opacity="0.32"/>
</linearGradient>
<linearGradient id="paint3_linear_1292_5229" x1="96.3082" y1="-129.992" x2="-71.51" y2="-95.4316" gradientUnits="userSpaceOnUse">
<stop stop-color="#D39CFF"/>
<stop offset="0.549209" stop-color="#B4C5FE" stop-opacity="0.852278"/>
<stop offset="0.856527" stop-color="#93F1FE" stop-opacity="0.695417"/>
<stop offset="1" stop-color="#F0DEFF" stop-opacity="0.32"/>
</linearGradient>
<linearGradient id="paint4_linear_1292_5229" x1="96.3082" y1="-129.992" x2="-71.51" y2="-95.4316" gradientUnits="userSpaceOnUse">
<stop stop-color="#D39CFF"/>
<stop offset="0.549209" stop-color="#B4C5FE" stop-opacity="0.852278"/>
<stop offset="0.856527" stop-color="#93F1FE" stop-opacity="0.695417"/>
<stop offset="1" stop-color="#F0DEFF" stop-opacity="0.32"/>
</linearGradient>
<linearGradient id="paint5_linear_1292_5229" x1="96.3082" y1="-129.992" x2="-71.51" y2="-95.4316" gradientUnits="userSpaceOnUse">
<stop stop-color="#D39CFF"/>
<stop offset="0.549209" stop-color="#B4C5FE" stop-opacity="0.852278"/>
<stop offset="0.856527" stop-color="#93F1FE" stop-opacity="0.695417"/>
<stop offset="1" stop-color="#F0DEFF" stop-opacity="0.32"/>
</linearGradient>
<linearGradient id="paint6_linear_1292_5229" x1="96.3082" y1="-129.992" x2="-71.51" y2="-95.4316" gradientUnits="userSpaceOnUse">
<stop stop-color="#D39CFF"/>
<stop offset="0.549209" stop-color="#B4C5FE" stop-opacity="0.852278"/>
<stop offset="0.856527" stop-color="#93F1FE" stop-opacity="0.695417"/>
<stop offset="1" stop-color="#F0DEFF" stop-opacity="0.32"/>
</linearGradient>
<linearGradient id="paint7_linear_1292_5229" x1="96.3082" y1="-129.992" x2="-71.51" y2="-95.4316" gradientUnits="userSpaceOnUse">
<stop stop-color="#D39CFF"/>
<stop offset="0.549209" stop-color="#B4C5FE" stop-opacity="0.852278"/>
<stop offset="0.856527" stop-color="#93F1FE" stop-opacity="0.695417"/>
<stop offset="1" stop-color="#F0DEFF" stop-opacity="0.32"/>
</linearGradient>
<linearGradient id="paint8_linear_1292_5229" x1="172.808" y1="-122.602" x2="53.9916" y2="-102.666" gradientUnits="userSpaceOnUse">
<stop stop-color="#D39CFF"/>
<stop offset="0.549209" stop-color="#B4C5FE" stop-opacity="0.852278"/>
<stop offset="0.856527" stop-color="#93F1FE" stop-opacity="0.695417"/>
<stop offset="1" stop-color="#F0DEFF" stop-opacity="0.32"/>
</linearGradient>
<linearGradient id="paint9_linear_1292_5229" x1="172.808" y1="-122.602" x2="53.9916" y2="-102.666" gradientUnits="userSpaceOnUse">
<stop stop-color="#D39CFF"/>
<stop offset="0.549209" stop-color="#B4C5FE" stop-opacity="0.852278"/>
<stop offset="0.856527" stop-color="#93F1FE" stop-opacity="0.695417"/>
<stop offset="1" stop-color="#F0DEFF" stop-opacity="0.32"/>
</linearGradient>
<linearGradient id="paint10_linear_1292_5229" x1="172.808" y1="-122.602" x2="53.9916" y2="-102.666" gradientUnits="userSpaceOnUse">
<stop stop-color="#D39CFF"/>
<stop offset="0.549209" stop-color="#B4C5FE" stop-opacity="0.852278"/>
<stop offset="0.856527" stop-color="#93F1FE" stop-opacity="0.695417"/>
<stop offset="1" stop-color="#F0DEFF" stop-opacity="0.32"/>
</linearGradient>
<linearGradient id="paint11_linear_1292_5229" x1="172.808" y1="-122.602" x2="53.9916" y2="-102.666" gradientUnits="userSpaceOnUse">
<stop stop-color="#D39CFF"/>
<stop offset="0.549209" stop-color="#B4C5FE" stop-opacity="0.852278"/>
<stop offset="0.856527" stop-color="#93F1FE" stop-opacity="0.695417"/>
<stop offset="1" stop-color="#F0DEFF" stop-opacity="0.32"/>
</linearGradient>
<linearGradient id="paint12_linear_1292_5229" x1="172.808" y1="-122.602" x2="53.9916" y2="-102.666" gradientUnits="userSpaceOnUse">
<stop stop-color="#D39CFF"/>
<stop offset="0.549209" stop-color="#B4C5FE" stop-opacity="0.852278"/>
<stop offset="0.856527" stop-color="#93F1FE" stop-opacity="0.695417"/>
<stop offset="1" stop-color="#F0DEFF" stop-opacity="0.32"/>
</linearGradient>
<linearGradient id="paint13_linear_1292_5229" x1="172.808" y1="-122.602" x2="53.9916" y2="-102.666" gradientUnits="userSpaceOnUse">
<stop stop-color="#D39CFF"/>
<stop offset="0.549209" stop-color="#B4C5FE" stop-opacity="0.852278"/>
<stop offset="0.856527" stop-color="#93F1FE" stop-opacity="0.695417"/>
<stop offset="1" stop-color="#F0DEFF" stop-opacity="0.32"/>
</linearGradient>
<linearGradient id="paint14_linear_1292_5229" x1="172.808" y1="-122.602" x2="53.9916" y2="-102.666" gradientUnits="userSpaceOnUse">
<stop stop-color="#D39CFF"/>
<stop offset="0.549209" stop-color="#B4C5FE" stop-opacity="0.852278"/>
<stop offset="0.856527" stop-color="#93F1FE" stop-opacity="0.695417"/>
<stop offset="1" stop-color="#F0DEFF" stop-opacity="0.32"/>
</linearGradient>
<linearGradient id="paint15_linear_1292_5229" x1="172.808" y1="-122.602" x2="53.9916" y2="-102.666" gradientUnits="userSpaceOnUse">
<stop stop-color="#D39CFF"/>
<stop offset="0.549209" stop-color="#B4C5FE" stop-opacity="0.852278"/>
<stop offset="0.856527" stop-color="#93F1FE" stop-opacity="0.695417"/>
<stop offset="1" stop-color="#F0DEFF" stop-opacity="0.32"/>
</linearGradient>
</defs>
</svg>
