<svg width="123" height="141" viewBox="0 0 123 141" fill="none" xmlns="http://www.w3.org/2000/svg">
<path fill-rule="evenodd" clip-rule="evenodd" d="M66.6218 59.7096H66.522H55.7489H55.6491L55.5513 59.6899C42.695 57.0994 33.0132 45.7426 33.0132 32.1223C33.0132 16.5908 45.6039 4 61.1354 4C76.6669 4 89.2577 16.5908 89.2577 32.1223C89.2577 45.7426 79.5759 57.0994 66.7196 59.6899L66.6218 59.7096ZM48.4571 58.3547V58.967V59.9596V70.4637V70.7137H48.7071H73.2165H73.4665V70.4637V59.9596V59.1415V58.5203L74.0234 58.245C83.6445 53.4889 90.2577 43.577 90.2577 32.1223C90.2577 16.0385 77.2192 3 61.1354 3C45.0517 3 32.0132 16.0385 32.0132 32.1223C32.0132 43.4432 38.4727 53.2572 47.9118 58.0764L48.4571 58.3547ZM74.4665 59.1415C84.4155 54.2233 91.2577 43.9718 91.2577 32.1223C91.2577 15.4862 77.7715 2 61.1354 2C44.4994 2 31.0132 15.4862 31.0132 32.1223C31.0132 43.8334 37.6965 53.9837 47.4571 58.967V59.9596V70.4637V70.7137V71.7137H48.4571H48.7071H73.2165H73.4665H74.4665V70.7137V70.4637V59.9596V59.1415ZM53.4111 60.2096L53.5389 60.2441C55.9596 60.8963 58.5061 61.2445 61.1354 61.2445C63.7648 61.2445 66.3113 60.8963 68.732 60.2441L68.8598 60.2096H68.9921H71.9665H72.9665V61.2096V69.2137V70.2137H71.9665H49.9571H48.9571V69.2137V61.2096V60.2096H49.9571H53.2788H53.4111ZM49.9571 62.2096V61.2096H50.9571H53.2788C55.7835 61.8845 58.4174 62.2445 61.1354 62.2445C63.8534 62.2445 66.4874 61.8845 68.9921 61.2096H70.9665H71.9665V62.2096V68.2137V69.2137H70.9665H50.9571H49.9571V68.2137V62.2096ZM61.1354 5C46.1562 5 34.0132 17.143 34.0132 32.1223C34.0132 45.2571 43.3501 56.2113 55.7489 58.7096H66.522C78.9208 56.2113 88.2577 45.2571 88.2577 32.1223C88.2577 17.143 76.1146 5 61.1354 5Z" fill="url(#paint0_linear_2947_5021)"/>
<path d="M66.6218 59.7096V60.9596H66.7465L66.8687 60.935L66.6218 59.7096ZM55.6491 59.7096L55.4022 60.935L55.5244 60.9596H55.6491V59.7096ZM55.5513 59.6899L55.3044 60.9153H55.3044L55.5513 59.6899ZM66.7196 59.6899L66.9665 60.9153L66.7196 59.6899ZM48.4571 58.3547H49.7071V57.5895L49.0255 57.2415L48.4571 58.3547ZM48.4571 70.7137H47.2071V71.9637H48.4571V70.7137ZM73.4665 70.7137V71.9637H74.7165V70.7137H73.4665ZM73.4665 58.5203L72.9126 57.3997L72.2165 57.7438V58.5203H73.4665ZM74.0234 58.245L73.4694 57.1244H73.4694L74.0234 58.245ZM47.9118 58.0764L48.4802 56.9631V56.9631L47.9118 58.0764ZM74.4665 59.1415L73.9126 58.0209L73.2165 58.365V59.1415H74.4665ZM47.4571 58.967H48.7071V58.2017L48.0255 57.8537L47.4571 58.967ZM47.4571 71.7137H46.2071V72.9637H47.4571V71.7137ZM74.4665 71.7137V72.9637H75.7165V71.7137H74.4665ZM53.5389 60.2441L53.8641 59.0371H53.8641L53.5389 60.2441ZM53.4111 60.2096L53.7363 59.0027L53.5766 58.9596H53.4111V60.2096ZM68.732 60.2441L68.4068 59.0371H68.4068L68.732 60.2441ZM68.8598 60.2096V58.9596H68.6943L68.5346 59.0027L68.8598 60.2096ZM72.9665 60.2096H74.2165V58.9596H72.9665V60.2096ZM72.9665 70.2137V71.4637H74.2165V70.2137H72.9665ZM48.9571 70.2137H47.7071V71.4637H48.9571V70.2137ZM48.9571 60.2096V58.9596H47.7071V60.2096H48.9571ZM49.9571 61.2096V59.9596H48.7071V61.2096H49.9571ZM53.2788 61.2096L53.604 60.0027L53.4442 59.9596H53.2788V61.2096ZM68.9921 61.2096V59.9596H68.8267L68.6669 60.0027L68.9921 61.2096ZM71.9665 61.2096H73.2165V59.9596H71.9665V61.2096ZM71.9665 69.2137V70.4637H73.2165V69.2137H71.9665ZM49.9571 69.2137H48.7071V70.4637H49.9571V69.2137ZM55.7489 58.7096L55.5019 59.935L55.6242 59.9596H55.7489V58.7096ZM66.522 58.7096V59.9596H66.6467L66.7689 59.935L66.522 58.7096ZM66.522 60.9596H66.6218V58.4596H66.522V60.9596ZM55.7489 60.9596H66.522V58.4596H55.7489V60.9596ZM55.6491 60.9596H55.7489V58.4596H55.6491V60.9596ZM55.3044 60.9153L55.4022 60.935L55.896 58.4843L55.7982 58.4646L55.3044 60.9153ZM31.7632 32.1223C31.7632 46.3495 41.8762 58.2095 55.3044 60.9153L55.7982 58.4646C43.5138 55.9892 34.2632 45.1357 34.2632 32.1223H31.7632ZM61.1354 2.75C44.9136 2.75 31.7632 15.9004 31.7632 32.1223H34.2632C34.2632 17.2811 46.2943 5.25 61.1354 5.25V2.75ZM90.5077 32.1223C90.5077 15.9004 77.3573 2.75 61.1354 2.75V5.25C75.9766 5.25 88.0077 17.2811 88.0077 32.1223H90.5077ZM66.9665 60.9153C80.3947 58.2095 90.5077 46.3495 90.5077 32.1223H88.0077C88.0077 45.1357 78.7571 55.9892 66.4726 58.4646L66.9665 60.9153ZM66.8687 60.935L66.9665 60.9153L66.4726 58.4646L66.3749 58.4843L66.8687 60.935ZM49.7071 58.967V58.3547H47.2071V58.967H49.7071ZM49.7071 59.9596V58.967H47.2071V59.9596H49.7071ZM49.7071 70.4637V59.9596H47.2071V70.4637H49.7071ZM49.7071 70.7137V70.4637H47.2071V70.7137H49.7071ZM48.7071 69.4637H48.4571V71.9637H48.7071V69.4637ZM73.2165 69.4637H48.7071V71.9637H73.2165V69.4637ZM73.4665 69.4637H73.2165V71.9637H73.4665V69.4637ZM72.2165 70.4637V70.7137H74.7165V70.4637H72.2165ZM72.2165 59.9596V70.4637H74.7165V59.9596H72.2165ZM72.2165 59.1415V59.9596H74.7165V59.1415H72.2165ZM72.2165 58.5203V59.1415H74.7165V58.5203H72.2165ZM73.4694 57.1244L72.9126 57.3997L74.0205 59.6408L74.5773 59.3656L73.4694 57.1244ZM89.0077 32.1223C89.0077 43.0835 82.6807 52.571 73.4694 57.1244L74.5773 59.3656C84.6084 54.4068 91.5077 44.0704 91.5077 32.1223H89.0077ZM61.1354 4.25C76.5289 4.25 89.0077 16.7288 89.0077 32.1223H91.5077C91.5077 15.3481 77.9096 1.75 61.1354 1.75V4.25ZM33.2632 32.1223C33.2632 16.7288 45.742 4.25 61.1354 4.25V1.75C44.3613 1.75 30.7632 15.3481 30.7632 32.1223H33.2632ZM48.4802 56.9631C39.4432 52.3492 33.2632 42.9555 33.2632 32.1223H30.7632C30.7632 43.9309 37.5023 54.1652 47.3434 59.1896L48.4802 56.9631ZM49.0255 57.2415L48.4802 56.9631L47.3434 59.1896L47.8887 59.468L49.0255 57.2415ZM90.0077 32.1223C90.0077 43.4782 83.4518 53.3053 73.9126 58.0209L75.0204 60.262C85.3793 55.1413 92.5077 44.4654 92.5077 32.1223H90.0077ZM61.1354 3.25C77.0811 3.25 90.0077 16.1765 90.0077 32.1223H92.5077C92.5077 14.7958 78.4619 0.75 61.1354 0.75V3.25ZM32.2632 32.1223C32.2632 16.1765 45.1897 3.25 61.1354 3.25V0.75C43.809 0.75 29.7632 14.7958 29.7632 32.1223H32.2632ZM48.0255 57.8537C38.6668 53.0756 32.2632 43.3457 32.2632 32.1223H29.7632C29.7632 44.3212 36.7261 54.8917 46.8887 60.0803L48.0255 57.8537ZM48.7071 59.9596V58.967H46.2071V59.9596H48.7071ZM48.7071 70.4637V59.9596H46.2071V70.4637H48.7071ZM48.7071 70.7137V70.4637H46.2071V70.7137H48.7071ZM48.7071 71.7137V70.7137H46.2071V71.7137H48.7071ZM48.4571 70.4637H47.4571V72.9637H48.4571V70.4637ZM48.7071 70.4637H48.4571V72.9637H48.7071V70.4637ZM73.2165 70.4637H48.7071V72.9637H73.2165V70.4637ZM73.4665 70.4637H73.2165V72.9637H73.4665V70.4637ZM74.4665 70.4637H73.4665V72.9637H74.4665V70.4637ZM73.2165 70.7137V71.7137H75.7165V70.7137H73.2165ZM73.2165 70.4637V70.7137H75.7165V70.4637H73.2165ZM73.2165 59.9596V70.4637H75.7165V59.9596H73.2165ZM73.2165 59.1415V59.9596H75.7165V59.1415H73.2165ZM53.8641 59.0371L53.7363 59.0027L53.0859 61.4166L53.2137 61.451L53.8641 59.0371ZM61.1354 59.9945C58.6169 59.9945 56.1797 59.661 53.8641 59.0371L53.2137 61.451C55.7395 62.1316 58.3953 62.4945 61.1354 62.4945V59.9945ZM68.4068 59.0371C66.0911 59.661 63.654 59.9945 61.1354 59.9945V62.4945C63.8756 62.4945 66.5314 62.1316 69.0572 61.451L68.4068 59.0371ZM68.5346 59.0027L68.4068 59.0371L69.0572 61.451L69.185 61.4166L68.5346 59.0027ZM68.9921 58.9596H68.8598V61.4596H68.9921V58.9596ZM71.9665 58.9596H68.9921V61.4596H71.9665V58.9596ZM72.9665 58.9596H71.9665V61.4596H72.9665V58.9596ZM74.2165 61.2096V60.2096H71.7165V61.2096H74.2165ZM74.2165 69.2137V61.2096H71.7165V69.2137H74.2165ZM74.2165 70.2137V69.2137H71.7165V70.2137H74.2165ZM71.9665 71.4637H72.9665V68.9637H71.9665V71.4637ZM49.9571 71.4637H71.9665V68.9637H49.9571V71.4637ZM48.9571 71.4637H49.9571V68.9637H48.9571V71.4637ZM47.7071 69.2137V70.2137H50.2071V69.2137H47.7071ZM47.7071 61.2096V69.2137H50.2071V61.2096H47.7071ZM47.7071 60.2096V61.2096H50.2071V60.2096H47.7071ZM49.9571 58.9596H48.9571V61.4596H49.9571V58.9596ZM53.2788 58.9596H49.9571V61.4596H53.2788V58.9596ZM53.4111 58.9596H53.2788V61.4596H53.4111V58.9596ZM48.7071 61.2096V62.2096H51.2071V61.2096H48.7071ZM50.9571 59.9596H49.9571V62.4596H50.9571V59.9596ZM53.2788 59.9596H50.9571V62.4596H53.2788V59.9596ZM61.1354 60.9945C58.5283 60.9945 56.0036 60.6493 53.604 60.0027L52.9535 62.4166C55.5634 63.1198 58.3066 63.4945 61.1354 63.4945V60.9945ZM68.6669 60.0027C66.2672 60.6493 63.7426 60.9945 61.1354 60.9945V63.4945C63.9643 63.4945 66.7075 63.1198 69.3173 62.4166L68.6669 60.0027ZM70.9665 59.9596H68.9921V62.4596H70.9665V59.9596ZM71.9665 59.9596H70.9665V62.4596H71.9665V59.9596ZM73.2165 62.2096V61.2096H70.7165V62.2096H73.2165ZM73.2165 68.2137V62.2096H70.7165V68.2137H73.2165ZM73.2165 69.2137V68.2137H70.7165V69.2137H73.2165ZM70.9665 70.4637H71.9665V67.9637H70.9665V70.4637ZM50.9571 70.4637H70.9665V67.9637H50.9571V70.4637ZM49.9571 70.4637H50.9571V67.9637H49.9571V70.4637ZM48.7071 68.2137V69.2137H51.2071V68.2137H48.7071ZM48.7071 62.2096V68.2137H51.2071V62.2096H48.7071ZM35.2632 32.1223C35.2632 17.8334 46.8466 6.25 61.1354 6.25V3.75C45.4659 3.75 32.7632 16.4527 32.7632 32.1223H35.2632ZM55.9958 57.4843C44.169 55.1012 35.2632 44.6503 35.2632 32.1223H32.7632C32.7632 45.8639 42.5312 57.3214 55.5019 59.935L55.9958 57.4843ZM66.522 57.4596H55.7489V59.9596H66.522V57.4596ZM87.0077 32.1223C87.0077 44.6503 78.1019 55.1012 66.2751 57.4843L66.7689 59.935C79.7397 57.3214 89.5077 45.8639 89.5077 32.1223H87.0077ZM61.1354 6.25C75.4243 6.25 87.0077 17.8334 87.0077 32.1223H89.5077C89.5077 16.4527 76.805 3.75 61.1354 3.75V6.25Z" fill="url(#paint1_linear_2947_5021)"/>
<path d="M36.4774 85.3602H28.1718C27.0704 85.3602 26.0142 85.7049 25.2354 86.3185C24.4566 86.9321 24.019 87.7643 24.019 88.6321V134.439C24.019 135.306 24.4566 136.139 25.2354 136.752C26.0142 137.366 27.0704 137.71 28.1718 137.71H94.6164C95.7178 137.71 96.774 137.366 97.5528 136.752C98.3316 136.139 98.7692 135.306 98.7692 134.439V88.6321C98.7692 87.7643 98.3316 86.9321 97.5528 86.3185C96.774 85.7049 95.7178 85.3602 94.6164 85.3602H86.3108M36.4774 85.3602L44.783 78.8164M36.4774 85.3602L44.783 101.72L61.3941 92.8528M44.783 78.8164H78.0052M44.783 78.8164L61.3941 92.8528M78.0052 78.8164L86.3108 85.3602M78.0052 78.8164L61.3941 92.8528M86.3108 85.3602L78.0052 101.72L61.3941 92.8528" stroke="url(#paint2_linear_2947_5021)" stroke-width="5" stroke-linecap="round" stroke-linejoin="round"/>
<path fill-rule="evenodd" clip-rule="evenodd" d="M27.5432 14.6499C28.9915 15.4545 30.8179 14.9327 31.6226 13.4843C32.4272 12.036 31.9054 10.2096 30.457 9.40494L25.5088 6.65591C24.0604 5.85127 22.234 6.3731 21.4294 7.82145C20.6247 9.2698 21.1466 11.0962 22.5949 11.9009L27.5432 14.6499ZM94.1125 15.7829C92.6641 16.5875 90.8377 16.0657 90.0331 14.6173C89.2285 13.169 89.7503 11.3425 91.1986 10.5379L96.1469 7.78888C97.5952 6.98424 99.4217 7.50607 100.226 8.95442C101.031 10.4028 100.509 12.2292 99.0607 13.0338L94.1125 15.7829ZM26.2842 31.9833C26.2842 33.6401 24.9411 34.9833 23.2842 34.9833H15.6933C14.0365 34.9833 12.6933 33.6401 12.6933 31.9833C12.6933 30.3264 14.0365 28.9833 15.6933 28.9833H23.2842C24.9411 28.9833 26.2842 30.3264 26.2842 31.9833ZM98.3714 36.1152C96.7146 36.1152 95.3714 34.7721 95.3714 33.1152C95.3714 31.4584 96.7146 30.1152 98.3714 30.1152H105.962C107.619 30.1152 108.962 31.4584 108.962 33.1152C108.962 34.7721 107.619 36.1152 105.962 36.1152H98.3714ZM30.7074 49.924C31.2736 51.4811 30.4703 53.2024 28.9132 53.7687L22.0936 56.2485C20.5365 56.8147 18.8152 56.0115 18.249 54.4543C17.6828 52.8972 18.4861 51.176 20.0432 50.6097L26.8628 48.1299C28.4199 47.5637 30.1411 48.3669 30.7074 49.924ZM92.7425 54.9006C91.1854 54.3344 90.3821 52.6131 90.9483 51.056C91.5145 49.4989 93.2358 48.6956 94.7929 49.2618L101.613 51.7417C103.17 52.3079 103.973 54.0292 103.407 55.5863C102.84 57.1434 101.119 57.9467 99.5621 57.3805L92.7425 54.9006ZM60.8445 37.9543C60.2358 37.9163 59.8332 37.9615 59.6238 38.0233C57.4384 38.6679 56.1572 39.4014 55.5985 40.5228C55.6026 40.5147 55.6026 40.5147 55.5997 40.5242C55.5917 40.551 55.561 40.6531 55.5361 40.8575C55.5059 41.1062 55.4951 41.4148 55.508 41.7463C55.5208 42.0762 55.5558 42.3972 55.6048 42.6668C55.6292 42.8008 55.6552 42.9121 55.6799 42.9987C55.692 43.0415 55.7029 43.0748 55.7117 43.0993L55.7171 43.114L55.7229 43.1286L55.7258 43.1354C55.7724 43.235 55.8178 43.3341 55.8631 43.4326C56.0483 43.8358 56.2301 44.2316 56.4657 44.6335C56.4965 44.6862 56.5273 44.7371 56.5581 44.7864C56.6318 44.7387 56.7046 44.692 56.7761 44.6463C59.2495 43.0675 62.3273 42.3909 65.1838 42.3782C65.2427 42.3779 65.3102 42.3764 65.3852 42.3748L65.3862 42.3748C66.0221 42.361 67.1981 42.3354 68.2459 42.9237C69.1849 43.4508 69.9113 44.2152 70.3892 45.0881C71.1794 46.5315 71.3464 48.5224 70.5573 50.127C70.0899 51.0773 69.177 51.7248 68.4667 52.1024C67.7314 52.4933 66.7907 52.8183 65.9242 52.8183C63.8019 52.8183 61.9347 52.2738 60.1694 51.5572C58.7489 50.9806 57.4843 50.1259 56.3818 49.3278C55.7992 49.9078 55.4232 50.4919 55.2882 51.1191C55.1303 51.8528 55.2402 52.5493 55.5037 52.938C55.8439 53.4399 56.4675 53.8736 57.4629 54.4082C58.6137 55.0262 60.3575 55.7476 62.1862 56.3131C64.0385 56.8858 65.8115 57.2463 67.0568 57.2463C68.0233 57.2463 68.8068 58.0298 68.8068 58.9963C68.8068 59.9628 68.0233 60.7463 67.0568 60.7463C65.2896 60.7463 63.1224 60.2661 61.1523 59.6569C59.1585 59.0404 57.1976 58.2386 55.8069 57.4917C54.8023 56.9521 53.4731 56.18 52.6066 54.9019C51.6345 53.4679 51.5832 51.6997 51.8666 50.3827C52.1626 49.0073 52.9075 47.884 53.7996 46.962C53.6688 46.7712 53.5515 46.5831 53.4462 46.4036C53.1124 45.834 52.8421 45.2434 52.6563 44.8372L52.6562 44.8371C52.6188 44.7553 52.5847 44.6809 52.5543 44.6157C52.1968 43.8498 52.0449 42.7648 52.0106 41.8823C51.9921 41.4063 52.0044 40.9065 52.0617 40.4349C52.1157 39.9913 52.2235 39.4485 52.4657 38.9622C53.7389 36.4064 56.372 35.3334 58.6336 34.6663C59.4017 34.4397 60.2665 34.4115 61.0621 34.461C61.8823 34.5121 62.7513 34.6545 63.5857 34.8488C65.2084 35.2267 66.9307 35.8563 68.0278 36.5881C68.8319 37.1244 69.0489 38.211 68.5126 39.0151C67.9763 39.8191 66.8897 40.0362 66.0857 39.4999C65.484 39.0985 64.2198 38.5902 62.7918 38.2576C62.101 38.0967 61.4287 37.9907 60.8445 37.9543ZM59.405 47.1706C60.0884 47.6282 60.76 48.0196 61.4858 48.3142C63.0263 48.9395 64.4232 49.3183 65.9242 49.3183C65.9242 49.3183 65.9253 49.3183 65.9278 49.3182L65.9308 49.3181C65.9352 49.3178 65.9416 49.3174 65.9499 49.3167L65.9611 49.3155L65.9726 49.3142C65.9858 49.3125 66.0013 49.3103 66.0191 49.3073C66.0783 49.2972 66.1537 49.28 66.2428 49.2534C66.4232 49.1995 66.6265 49.1168 66.8238 49.0119C67.0228 48.9062 67.1859 48.7936 67.3009 48.6932C67.3839 48.6208 67.417 48.5764 67.4235 48.568C67.6458 48.0994 67.6236 47.325 67.3192 46.7689C67.1449 46.4504 66.8796 46.1705 66.5325 45.9756C66.4808 45.9466 66.3859 45.9087 66.1673 45.8888C65.9701 45.8709 65.7817 45.8728 65.5001 45.8757L65.499 45.8757L65.4975 45.8757C65.4085 45.8766 65.3102 45.8776 65.1994 45.8781C63.1414 45.8873 61.0772 46.3174 59.405 47.1706ZM95.3714 83.1124C93.9907 83.1124 92.8714 84.2317 92.8714 85.6124C92.8714 86.9931 93.9907 88.1124 95.3714 88.1124C96.5584 88.1124 98.5696 88.8048 101.073 90.7941C103.512 92.7324 106.191 95.7278 108.68 99.8459C113.486 107.795 117.513 119.806 117.775 136.027H5.01354C5.27538 119.806 9.30225 107.795 14.1078 99.8459C16.5975 95.7278 19.2758 92.7324 21.715 90.7941C24.2185 88.8048 26.2298 88.1124 27.4167 88.1124C28.7974 88.1124 29.9167 86.9931 29.9167 85.6124C29.9167 84.2317 28.7974 83.1124 27.4167 83.1124C24.617 83.1124 21.5203 84.5625 18.6044 86.8795C15.6243 89.2476 12.5717 92.7223 9.82894 97.2591C4.33429 106.348 0 119.83 0 137.711C0 138.2 0.140669 138.657 0.383786 139.043C0.697129 139.908 1.52636 140.527 2.50004 140.527H120.288C121.262 140.527 122.091 139.908 122.404 139.043C122.647 138.657 122.788 138.2 122.788 137.711C122.788 119.83 118.454 106.348 112.959 97.2591C110.216 92.7223 107.164 89.2476 104.184 86.8795C101.268 84.5625 98.1712 83.1124 95.3714 83.1124Z" fill="url(#paint3_linear_2947_5021)"/>
<defs>
<linearGradient id="paint0_linear_2947_5021" x1="82.2186" y1="-92.9493" x2="-9.18614" y2="-77.5889" gradientUnits="userSpaceOnUse">
<stop stop-color="#D39CFF"/>
<stop offset="0.549209" stop-color="#B4C5FE" stop-opacity="0.852278"/>
<stop offset="0.856527" stop-color="#93F1FE" stop-opacity="0.695417"/>
<stop offset="1" stop-color="#F0DEFF" stop-opacity="0.32"/>
</linearGradient>
<linearGradient id="paint1_linear_2947_5021" x1="82.2186" y1="-92.9493" x2="-9.18614" y2="-77.5889" gradientUnits="userSpaceOnUse">
<stop stop-color="#D39CFF"/>
<stop offset="0.549209" stop-color="#B4C5FE" stop-opacity="0.852278"/>
<stop offset="0.856527" stop-color="#93F1FE" stop-opacity="0.695417"/>
<stop offset="1" stop-color="#F0DEFF" stop-opacity="0.32"/>
</linearGradient>
<linearGradient id="paint2_linear_2947_5021" x1="87.5536" y1="-1.39666" x2="-22.3661" y2="25.7333" gradientUnits="userSpaceOnUse">
<stop stop-color="#D39CFF"/>
<stop offset="0.549209" stop-color="#B4C5FE" stop-opacity="0.852278"/>
<stop offset="0.856527" stop-color="#93F1FE" stop-opacity="0.695417"/>
<stop offset="1" stop-color="#F0DEFF" stop-opacity="0.32"/>
</linearGradient>
<linearGradient id="paint3_linear_2947_5021" x1="104.365" y1="-176.568" x2="-81.3198" y2="-143.542" gradientUnits="userSpaceOnUse">
<stop stop-color="#D39CFF"/>
<stop offset="0.549209" stop-color="#B4C5FE" stop-opacity="0.852278"/>
<stop offset="0.856527" stop-color="#93F1FE" stop-opacity="0.695417"/>
<stop offset="1" stop-color="#F0DEFF" stop-opacity="0.32"/>
</linearGradient>
</defs>
</svg>
